M48
;Layer_Color=9474304
;FILE_FORMAT=2:5
INCH,TZ
;TYPE=PLATED
T1F00S00C0.00787
T2F00S00C0.01000
T3F00S00C0.02598
T4F00S00C0.02800
T5F00S00C0.03500
T6F00S00C0.03800
;TYPE=NON_PLATED
T7F00S00C0.03937
%
T01
X309976Y353232
Y358744
X315488
X312732Y355988
X315488Y353232
X312732Y350476
X318244
X321000Y353232
Y358744
X318244Y355988
Y361500
X312732
T02
X321098Y289000
X344500Y296500
X358000
X379000Y286000
X369500Y274000
X418700Y312000
X468500Y299000
X296000Y293000
X299000Y289500
X292500
X296000Y285500
X300000Y388500
X305000Y391000
X297500Y428000
X322500Y434000
X341000Y411500
X361000Y419500
X374000Y382300
X372500Y368600
X381800Y368900
X399000Y371700
X395400Y362200
X412600Y369000
X425500Y369100
X425600Y364600
Y356000
X435900Y369000
X425600Y382000
Y386200
X412000Y344400
X361800Y349400
X367100Y330500
X481500Y425000
Y450000
T03
X310500Y407689
Y419500
T04
X310000Y300000
X361500Y387500
X362500Y394500
X364500Y403500
X371900Y392000
X379000Y428500
X401900Y405800
X415000Y388600
X439800Y377500
X426000Y424500
T05
X410000Y434500
Y444500
X458000
Y434500
T06
X351000Y272500
X361000
X381000
X391000
X304500Y447500
X294500
X323000
X333000
T07
X472700Y362300
Y393700
M30
