G04*
G04 #@! TF.GenerationSoftware,Altium Limited,Altium Designer,22.3.1 (43)*
G04*
G04 Layer_Color=2752767*
%FSLAX25Y25*%
%MOIN*%
G70*
G04*
G04 #@! TF.SameCoordinates,F2D03159-C11B-4201-A07A-7D52C7A15B01*
G04*
G04*
G04 #@! TF.FilePolarity,Positive*
G04*
G01*
G75*
%ADD12C,0.01000*%
%ADD70C,0.00200*%
%ADD71C,0.00267*%
D12*
X281000Y260500D02*
X491000D01*
X281000Y460500D02*
X491000D01*
Y260500D02*
Y460500D01*
X281000Y260500D02*
Y460500D01*
D70*
X471900Y392900D02*
Y394500D01*
X473500D01*
Y392900D01*
X471900D01*
Y361500D02*
Y363100D01*
X473500D01*
Y361500D01*
X471900D01*
X310500Y406889D02*
X309700Y408489D01*
X311300D01*
X310500Y406889D01*
Y418700D02*
X309700Y420300D01*
X311300D01*
X310500Y418700D01*
X381000Y271700D02*
X381400Y272100D01*
X381800D01*
X381400Y272500D01*
X381800Y272900D01*
X381400D01*
X381000Y273300D01*
X380600Y272900D01*
X380200D01*
X380600Y272500D01*
X380200Y272100D01*
X380600D01*
X381000Y271700D01*
X391000D02*
X391400Y272100D01*
X391800D01*
X391400Y272500D01*
X391800Y272900D01*
X391400D01*
X391000Y273300D01*
X390600Y272900D01*
X390200D01*
X390600Y272500D01*
X390200Y272100D01*
X390600D01*
X391000Y271700D01*
X320200Y357944D02*
X320600Y358744D01*
X320200Y359544D01*
X321000Y359144D01*
X321800Y359544D01*
X321400Y358744D01*
X321800Y357944D01*
X321000Y358344D01*
X320200Y357944D01*
Y352432D02*
X320600Y353232D01*
X320200Y354032D01*
X321000Y353632D01*
X321800Y354032D01*
X321400Y353232D01*
X321800Y352432D01*
X321000Y352832D01*
X320200Y352432D01*
X314688Y357944D02*
X315088Y358744D01*
X314688Y359544D01*
X315488Y359144D01*
X316288Y359544D01*
X315888Y358744D01*
X316288Y357944D01*
X315488Y358344D01*
X314688Y357944D01*
Y352432D02*
X315088Y353232D01*
X314688Y354032D01*
X315488Y353632D01*
X316288Y354032D01*
X315888Y353232D01*
X316288Y352432D01*
X315488Y352832D01*
X314688Y352432D01*
X309176Y357944D02*
X309576Y358744D01*
X309176Y359544D01*
X309976Y359144D01*
X310776Y359544D01*
X310376Y358744D01*
X310776Y357944D01*
X309976Y358344D01*
X309176Y357944D01*
Y352432D02*
X309576Y353232D01*
X309176Y354032D01*
X309976Y353632D01*
X310776Y354032D01*
X310376Y353232D01*
X310776Y352432D01*
X309976Y352832D01*
X309176Y352432D01*
X317444Y360700D02*
X317844Y361500D01*
X317444Y362300D01*
X318244Y361900D01*
X319044Y362300D01*
X318644Y361500D01*
X319044Y360700D01*
X318244Y361100D01*
X317444Y360700D01*
Y355188D02*
X317844Y355988D01*
X317444Y356788D01*
X318244Y356388D01*
X319044Y356788D01*
X318644Y355988D01*
X319044Y355188D01*
X318244Y355588D01*
X317444Y355188D01*
Y349676D02*
X317844Y350476D01*
X317444Y351276D01*
X318244Y350876D01*
X319044Y351276D01*
X318644Y350476D01*
X319044Y349676D01*
X318244Y350076D01*
X317444Y349676D01*
X311932Y360700D02*
X312332Y361500D01*
X311932Y362300D01*
X312732Y361900D01*
X313532Y362300D01*
X313132Y361500D01*
X313532Y360700D01*
X312732Y361100D01*
X311932Y360700D01*
Y349676D02*
X312332Y350476D01*
X311932Y351276D01*
X312732Y350876D01*
X313532Y351276D01*
X313132Y350476D01*
X313532Y349676D01*
X312732Y350076D01*
X311932Y349676D01*
Y355188D02*
X312332Y355988D01*
X311932Y356788D01*
X312732Y356388D01*
X313532Y356788D01*
X313132Y355988D01*
X313532Y355188D01*
X312732Y355588D01*
X311932Y355188D01*
X361000Y271700D02*
X361400Y272100D01*
X361800D01*
X361400Y272500D01*
X361800Y272900D01*
X361400D01*
X361000Y273300D01*
X360600Y272900D01*
X360200D01*
X360600Y272500D01*
X360200Y272100D01*
X360600D01*
X361000Y271700D01*
X351000D02*
X351400Y272100D01*
X351800D01*
X351400Y272500D01*
X351800Y272900D01*
X351400D01*
X351000Y273300D01*
X350600Y272900D01*
X350200D01*
X350600Y272500D01*
X350200Y272100D01*
X350600D01*
X351000Y271700D01*
X294500Y446700D02*
X294900Y447100D01*
X295300D01*
X294900Y447500D01*
X295300Y447900D01*
X294900D01*
X294500Y448300D01*
X294100Y447900D01*
X293700D01*
X294100Y447500D01*
X293700Y447100D01*
X294100D01*
X294500Y446700D01*
X304500D02*
X304900Y447100D01*
X305300D01*
X304900Y447500D01*
X305300Y447900D01*
X304900D01*
X304500Y448300D01*
X304100Y447900D01*
X303700D01*
X304100Y447500D01*
X303700Y447100D01*
X304100D01*
X304500Y446700D01*
X323000D02*
X323400Y447100D01*
X323800D01*
X323400Y447500D01*
X323800Y447900D01*
X323400D01*
X323000Y448300D01*
X322600Y447900D01*
X322200D01*
X322600Y447500D01*
X322200Y447100D01*
X322600D01*
X323000Y446700D01*
X333000D02*
X333400Y447100D01*
X333800D01*
X333400Y447500D01*
X333800Y447900D01*
X333400D01*
X333000Y448300D01*
X332600Y447900D01*
X332200D01*
X332600Y447500D01*
X332200Y447100D01*
X332600D01*
X333000Y446700D01*
X398600Y371300D02*
Y370900D01*
X399400D01*
Y371300D01*
X399800D01*
Y372100D01*
X399400D01*
Y372500D01*
X398600D01*
Y372100D01*
X398200D01*
Y371300D01*
X398600D01*
X425100Y368700D02*
Y368300D01*
X425900D01*
Y368700D01*
X426300D01*
Y369500D01*
X425900D01*
Y369900D01*
X425100D01*
Y369500D01*
X424700D01*
Y368700D01*
X425100D01*
X371100Y391200D02*
X371500D01*
X371900Y391600D01*
X372300Y391200D01*
X372700D01*
Y391600D01*
X372300Y392000D01*
X372700Y392400D01*
Y392800D01*
X372300D01*
X371900Y392400D01*
X371500Y392800D01*
X371100D01*
Y392400D01*
X371500Y392000D01*
X371100Y391600D01*
Y391200D01*
X401100Y405000D02*
X401500D01*
X401900Y405400D01*
X402300Y405000D01*
X402700D01*
Y405400D01*
X402300Y405800D01*
X402700Y406200D01*
Y406600D01*
X402300D01*
X401900Y406200D01*
X401500Y406600D01*
X401100D01*
Y406200D01*
X401500Y405800D01*
X401100Y405400D01*
Y405000D01*
X414200Y387800D02*
X414600D01*
X415000Y388200D01*
X415400Y387800D01*
X415800D01*
Y388200D01*
X415400Y388600D01*
X415800Y389000D01*
Y389400D01*
X415400D01*
X415000Y389000D01*
X414600Y389400D01*
X414200D01*
Y389000D01*
X414600Y388600D01*
X414200Y388200D01*
Y387800D01*
X439000Y376700D02*
X439400D01*
X439800Y377100D01*
X440200Y376700D01*
X440600D01*
Y377100D01*
X440200Y377500D01*
X440600Y377900D01*
Y378300D01*
X440200D01*
X439800Y377900D01*
X439400Y378300D01*
X439000D01*
Y377900D01*
X439400Y377500D01*
X439000Y377100D01*
Y376700D01*
X412200Y368600D02*
Y368200D01*
X413000D01*
Y368600D01*
X413400D01*
Y369400D01*
X413000D01*
Y369800D01*
X412200D01*
Y369400D01*
X411800D01*
Y368600D01*
X412200D01*
X372100Y368200D02*
Y367800D01*
X372900D01*
Y368200D01*
X373300D01*
Y369000D01*
X372900D01*
Y369400D01*
X372100D01*
Y369000D01*
X371700D01*
Y368200D01*
X372100D01*
X361400Y349000D02*
Y348600D01*
X362200D01*
Y349000D01*
X362600D01*
Y349800D01*
X362200D01*
Y350200D01*
X361400D01*
Y349800D01*
X361000D01*
Y349000D01*
X361400D01*
X395000Y361800D02*
Y361400D01*
X395800D01*
Y361800D01*
X396200D01*
Y362600D01*
X395800D01*
Y363000D01*
X395000D01*
Y362600D01*
X394600D01*
Y361800D01*
X395000D01*
X425200Y355600D02*
Y355200D01*
X426000D01*
Y355600D01*
X426400D01*
Y356400D01*
X426000D01*
Y356800D01*
X425200D01*
Y356400D01*
X424800D01*
Y355600D01*
X425200D01*
Y364200D02*
Y363800D01*
X426000D01*
Y364200D01*
X426400D01*
Y365000D01*
X426000D01*
Y365400D01*
X425200D01*
Y365000D01*
X424800D01*
Y364200D01*
X425200D01*
Y385800D02*
Y385400D01*
X426000D01*
Y385800D01*
X426400D01*
Y386600D01*
X426000D01*
Y387000D01*
X425200D01*
Y386600D01*
X424800D01*
Y385800D01*
X425200D01*
X360600Y419100D02*
Y418700D01*
X361400D01*
Y419100D01*
X361800D01*
Y419900D01*
X361400D01*
Y420300D01*
X360600D01*
Y419900D01*
X360200D01*
Y419100D01*
X360600D01*
X320698Y288600D02*
Y288200D01*
X321498D01*
Y288600D01*
X321898D01*
Y289400D01*
X321498D01*
Y289800D01*
X320698D01*
Y289400D01*
X320298D01*
Y288600D01*
X320698D01*
X298600Y289100D02*
Y288700D01*
X299400D01*
Y289100D01*
X299800D01*
Y289900D01*
X299400D01*
Y290300D01*
X298600D01*
Y289900D01*
X298200D01*
Y289100D01*
X298600D01*
X292100D02*
Y288700D01*
X292900D01*
Y289100D01*
X293300D01*
Y289900D01*
X292900D01*
Y290300D01*
X292100D01*
Y289900D01*
X291700D01*
Y289100D01*
X292100D01*
X295600Y285100D02*
Y284700D01*
X296400D01*
Y285100D01*
X296800D01*
Y285900D01*
X296400D01*
Y286300D01*
X295600D01*
Y285900D01*
X295200D01*
Y285100D01*
X295600D01*
Y292600D02*
Y292200D01*
X296400D01*
Y292600D01*
X296800D01*
Y293400D01*
X296400D01*
Y293800D01*
X295600D01*
Y293400D01*
X295200D01*
Y292600D01*
X295600D01*
X344100Y296100D02*
Y295700D01*
X344900D01*
Y296100D01*
X345300D01*
Y296900D01*
X344900D01*
Y297300D01*
X344100D01*
Y296900D01*
X343700D01*
Y296100D01*
X344100D01*
X357600D02*
Y295700D01*
X358400D01*
Y296100D01*
X358800D01*
Y296900D01*
X358400D01*
Y297300D01*
X357600D01*
Y296900D01*
X357200D01*
Y296100D01*
X357600D01*
X378600Y285600D02*
Y285200D01*
X379400D01*
Y285600D01*
X379800D01*
Y286400D01*
X379400D01*
Y286800D01*
X378600D01*
Y286400D01*
X378200D01*
Y285600D01*
X378600D01*
X373600Y381900D02*
Y381500D01*
X374400D01*
Y381900D01*
X374800D01*
Y382700D01*
X374400D01*
Y383100D01*
X373600D01*
Y382700D01*
X373200D01*
Y381900D01*
X373600D01*
X425200Y381600D02*
Y381200D01*
X426000D01*
Y381600D01*
X426400D01*
Y382400D01*
X426000D01*
Y382800D01*
X425200D01*
Y382400D01*
X424800D01*
Y381600D01*
X425200D01*
X381400Y368500D02*
Y368100D01*
X382200D01*
Y368500D01*
X382600D01*
Y369300D01*
X382200D01*
Y369700D01*
X381400D01*
Y369300D01*
X381000D01*
Y368500D01*
X381400D01*
X366700Y330100D02*
Y329700D01*
X367500D01*
Y330100D01*
X367900D01*
Y330900D01*
X367500D01*
Y331300D01*
X366700D01*
Y330900D01*
X366300D01*
Y330100D01*
X366700D01*
X369100Y273600D02*
Y273200D01*
X369900D01*
Y273600D01*
X370300D01*
Y274400D01*
X369900D01*
Y274800D01*
X369100D01*
Y274400D01*
X368700D01*
Y273600D01*
X369100D01*
X468100Y298600D02*
Y298200D01*
X468900D01*
Y298600D01*
X469300D01*
Y299400D01*
X468900D01*
Y299800D01*
X468100D01*
Y299400D01*
X467700D01*
Y298600D01*
X468100D01*
X411600Y344000D02*
Y343600D01*
X412400D01*
Y344000D01*
X412800D01*
Y344800D01*
X412400D01*
Y345200D01*
X411600D01*
Y344800D01*
X411200D01*
Y344000D01*
X411600D01*
X418300Y311600D02*
Y311200D01*
X419100D01*
Y311600D01*
X419500D01*
Y312400D01*
X419100D01*
Y312800D01*
X418300D01*
Y312400D01*
X417900D01*
Y311600D01*
X418300D01*
X297100Y427600D02*
Y427200D01*
X297900D01*
Y427600D01*
X298300D01*
Y428400D01*
X297900D01*
Y428800D01*
X297100D01*
Y428400D01*
X296700D01*
Y427600D01*
X297100D01*
X322100Y433600D02*
Y433200D01*
X322900D01*
Y433600D01*
X323300D01*
Y434400D01*
X322900D01*
Y434800D01*
X322100D01*
Y434400D01*
X321700D01*
Y433600D01*
X322100D01*
X481100Y424600D02*
Y424200D01*
X481900D01*
Y424600D01*
X482300D01*
Y425400D01*
X481900D01*
Y425800D01*
X481100D01*
Y425400D01*
X480700D01*
Y424600D01*
X481100D01*
Y449600D02*
Y449200D01*
X481900D01*
Y449600D01*
X482300D01*
Y450400D01*
X481900D01*
Y450800D01*
X481100D01*
Y450400D01*
X480700D01*
Y449600D01*
X481100D01*
X435500Y368600D02*
Y368200D01*
X436300D01*
Y368600D01*
X436700D01*
Y369400D01*
X436300D01*
Y369800D01*
X435500D01*
Y369400D01*
X435100D01*
Y368600D01*
X435500D01*
X361700Y393700D02*
X362100D01*
X362500Y394100D01*
X362900Y393700D01*
X363300D01*
Y394100D01*
X362900Y394500D01*
X363300Y394900D01*
Y395300D01*
X362900D01*
X362500Y394900D01*
X362100Y395300D01*
X361700D01*
Y394900D01*
X362100Y394500D01*
X361700Y394100D01*
Y393700D01*
X360700Y386700D02*
X361100D01*
X361500Y387100D01*
X361900Y386700D01*
X362300D01*
Y387100D01*
X361900Y387500D01*
X362300Y387900D01*
Y388300D01*
X361900D01*
X361500Y387900D01*
X361100Y388300D01*
X360700D01*
Y387900D01*
X361100Y387500D01*
X360700Y387100D01*
Y386700D01*
X425200Y423700D02*
X425600D01*
X426000Y424100D01*
X426400Y423700D01*
X426800D01*
Y424100D01*
X426400Y424500D01*
X426800Y424900D01*
Y425300D01*
X426400D01*
X426000Y424900D01*
X425600Y425300D01*
X425200D01*
Y424900D01*
X425600Y424500D01*
X425200Y424100D01*
Y423700D01*
X378200Y427700D02*
X378600D01*
X379000Y428100D01*
X379400Y427700D01*
X379800D01*
Y428100D01*
X379400Y428500D01*
X379800Y428900D01*
Y429300D01*
X379400D01*
X379000Y428900D01*
X378600Y429300D01*
X378200D01*
Y428900D01*
X378600Y428500D01*
X378200Y428100D01*
Y427700D01*
X363700Y402700D02*
X364100D01*
X364500Y403100D01*
X364900Y402700D01*
X365300D01*
Y403100D01*
X364900Y403500D01*
X365300Y403900D01*
Y404300D01*
X364900D01*
X364500Y403900D01*
X364100Y404300D01*
X363700D01*
Y403900D01*
X364100Y403500D01*
X363700Y403100D01*
Y402700D01*
X340600Y411100D02*
Y410700D01*
X341400D01*
Y411100D01*
X341800D01*
Y411900D01*
X341400D01*
Y412300D01*
X340600D01*
Y411900D01*
X340200D01*
Y411100D01*
X340600D01*
X299600Y388100D02*
Y387700D01*
X300400D01*
Y388100D01*
X300800D01*
Y388900D01*
X300400D01*
Y389300D01*
X299600D01*
Y388900D01*
X299200D01*
Y388100D01*
X299600D01*
X304600Y390600D02*
Y390200D01*
X305400D01*
Y390600D01*
X305800D01*
Y391400D01*
X305400D01*
Y391800D01*
X304600D01*
Y391400D01*
X304200D01*
Y390600D01*
X304600D01*
X309200Y299200D02*
X309600D01*
X310000Y299600D01*
X310400Y299200D01*
X310800D01*
Y299600D01*
X310400Y300000D01*
X310800Y300400D01*
Y300800D01*
X310400D01*
X310000Y300400D01*
X309600Y300800D01*
X309200D01*
Y300400D01*
X309600Y300000D01*
X309200Y299600D01*
Y299200D01*
D71*
X410800Y444500D02*
G03*
X410800Y444500I-800J0D01*
G01*
Y434500D02*
G03*
X410800Y434500I-800J0D01*
G01*
X458800D02*
G03*
X458800Y434500I-800J0D01*
G01*
Y444500D02*
G03*
X458800Y444500I-800J0D01*
G01*
M02*
