G04*
G04 #@! TF.GenerationSoftware,Altium Limited,Altium Designer,22.3.1 (43)*
G04*
G04 Layer_Color=255*
%FSLAX25Y25*%
%MOIN*%
G70*
G04*
G04 #@! TF.SameCoordinates,F2D03159-C11B-4201-A07A-7D52C7A15B01*
G04*
G04*
G04 #@! TF.FilePolarity,Positive*
G04*
G01*
G75*
%ADD12C,0.01000*%
%ADD61C,0.07000*%
%ADD65C,0.03937*%
%ADD66C,0.06000*%
%ADD67C,0.01575*%
D12*
X281000Y260500D02*
X491000D01*
X281000Y460500D02*
X491000D01*
Y260500D02*
Y460500D01*
X281000Y260500D02*
Y460500D01*
D61*
X381000Y272500D02*
D03*
X391000D02*
D03*
X361000D02*
D03*
X351000D02*
D03*
X294500Y447500D02*
D03*
X304500D02*
D03*
X323000D02*
D03*
X333000D02*
D03*
D65*
X472700Y393700D02*
D03*
Y362300D02*
D03*
D66*
X410000Y444500D02*
D03*
Y434500D02*
D03*
X458000D02*
D03*
Y444500D02*
D03*
X310500Y407689D02*
D03*
Y419500D02*
D03*
D67*
X321000Y358744D02*
D03*
Y353232D02*
D03*
X315488Y358744D02*
D03*
Y353232D02*
D03*
X309976Y358744D02*
D03*
Y353232D02*
D03*
X318244Y361500D02*
D03*
Y355988D02*
D03*
Y350476D02*
D03*
X312732Y361500D02*
D03*
Y350476D02*
D03*
Y355988D02*
D03*
M02*
