G04*
G04 #@! TF.GenerationSoftware,Altium Limited,Altium Designer,22.3.1 (43)*
G04*
G04 Layer_Color=255*
%FSLAX25Y25*%
%MOIN*%
G70*
G04*
G04 #@! TF.SameCoordinates,F2D03159-C11B-4201-A07A-7D52C7A15B01*
G04*
G04*
G04 #@! TF.FilePolarity,Positive*
G04*
G01*
G75*
%ADD12C,0.01000*%
%ADD19R,0.06500X0.07300*%
%ADD20R,0.09600X0.05700*%
%ADD21R,0.06500X0.05700*%
%ADD22R,0.05118X0.02756*%
%ADD23R,0.15748X0.08504*%
%ADD24R,0.04961X0.03543*%
%ADD25R,0.06299X0.04724*%
%ADD26R,0.09843X0.17717*%
%ADD27R,0.03000X0.02500*%
%ADD28R,0.05906X0.04724*%
%ADD29R,0.05906X0.09449*%
%ADD30R,0.02165X0.01968*%
%ADD31R,0.03900X0.07400*%
%ADD32R,0.03900X0.07450*%
%ADD33R,0.03543X0.05906*%
%ADD34R,0.05906X0.03543*%
%ADD35R,0.03543X0.03543*%
%ADD36R,0.09055X0.09055*%
%ADD37R,0.06000X0.04500*%
%ADD38R,0.04500X0.06000*%
%ADD39R,0.03543X0.04961*%
%ADD61C,0.07000*%
%ADD65C,0.03937*%
%ADD66C,0.06000*%
%ADD67C,0.01575*%
D12*
X281000Y260500D02*
X491000D01*
X281000Y460500D02*
X491000D01*
Y260500D02*
Y460500D01*
X281000Y260500D02*
Y460500D01*
D19*
X433603Y409800D02*
D03*
D20*
X471792Y412851D02*
D03*
Y350549D02*
D03*
D21*
X433603D02*
D03*
D22*
X430557Y356133D02*
D03*
Y360464D02*
D03*
Y364794D02*
D03*
Y369125D02*
D03*
Y373456D02*
D03*
Y377787D02*
D03*
Y382117D02*
D03*
Y386448D02*
D03*
Y390779D02*
D03*
D23*
X452500Y337000D02*
D03*
X476279D02*
D03*
X469500Y276500D02*
D03*
X445720D02*
D03*
X476279Y314000D02*
D03*
X452500D02*
D03*
D24*
X395569Y415600D02*
D03*
X404231Y411860D02*
D03*
Y419340D02*
D03*
D25*
X321098Y298055D02*
D03*
Y279945D02*
D03*
Y289000D02*
D03*
D26*
X295902D02*
D03*
D27*
X378500Y294200D02*
D03*
Y303800D02*
D03*
D28*
X430419Y285083D02*
D03*
Y276815D02*
D03*
D29*
X341000Y411500D02*
D03*
D30*
X335941Y415437D02*
D03*
Y411500D02*
D03*
Y407563D02*
D03*
X346059Y415437D02*
D03*
Y411500D02*
D03*
Y407563D02*
D03*
D31*
X351089Y282900D02*
D03*
D32*
X362900D02*
D03*
D33*
X285094Y396342D02*
D03*
X290094D02*
D03*
X295094D02*
D03*
X300095D02*
D03*
X305095D02*
D03*
X310094D02*
D03*
X315094D02*
D03*
X320094D02*
D03*
X325095D02*
D03*
X330095D02*
D03*
X335094D02*
D03*
X340094D02*
D03*
X345094D02*
D03*
X350095D02*
D03*
Y327445D02*
D03*
X345094D02*
D03*
X340094D02*
D03*
X335094D02*
D03*
X330095D02*
D03*
X325095D02*
D03*
X320094D02*
D03*
X315094D02*
D03*
X310094D02*
D03*
X305095D02*
D03*
X300095D02*
D03*
X295094D02*
D03*
X290094D02*
D03*
X285094D02*
D03*
D34*
X355016Y389394D02*
D03*
Y384394D02*
D03*
Y379394D02*
D03*
Y374394D02*
D03*
Y369394D02*
D03*
Y364394D02*
D03*
Y359394D02*
D03*
Y354394D02*
D03*
Y349394D02*
D03*
Y344394D02*
D03*
Y339394D02*
D03*
Y334394D02*
D03*
D35*
X309976Y361500D02*
D03*
Y355988D02*
D03*
Y350476D02*
D03*
X321000Y361500D02*
D03*
Y355988D02*
D03*
Y350476D02*
D03*
X315488Y361500D02*
D03*
Y350476D02*
D03*
Y355988D02*
D03*
D36*
X351200Y296500D02*
D03*
X366800D02*
D03*
D37*
X397200Y387800D02*
D03*
Y379800D02*
D03*
X288000Y313500D02*
D03*
Y305500D02*
D03*
X341000Y309000D02*
D03*
Y317000D02*
D03*
X331000Y309000D02*
D03*
Y317000D02*
D03*
X295500Y417500D02*
D03*
Y409500D02*
D03*
X320500Y309000D02*
D03*
Y317000D02*
D03*
X328500Y415500D02*
D03*
Y407500D02*
D03*
X353500Y415500D02*
D03*
Y407500D02*
D03*
X331000Y281000D02*
D03*
Y289000D02*
D03*
X438000Y435500D02*
D03*
Y443500D02*
D03*
X389000Y434500D02*
D03*
Y442500D02*
D03*
X437800Y313200D02*
D03*
Y305200D02*
D03*
X437181Y328919D02*
D03*
Y336919D02*
D03*
X296000Y313500D02*
D03*
Y305500D02*
D03*
X407300Y388100D02*
D03*
Y396100D02*
D03*
X387600Y387700D02*
D03*
Y379700D02*
D03*
D38*
X455500Y290500D02*
D03*
X463500D02*
D03*
X387000Y286000D02*
D03*
X379000D02*
D03*
D39*
X393500Y294500D02*
D03*
X386020D02*
D03*
X389760Y303161D02*
D03*
D61*
X381000Y272500D02*
D03*
X391000D02*
D03*
X361000D02*
D03*
X351000D02*
D03*
X294500Y447500D02*
D03*
X304500D02*
D03*
X323000D02*
D03*
X333000D02*
D03*
D65*
X472700Y393700D02*
D03*
Y362300D02*
D03*
D66*
X410000Y444500D02*
D03*
Y434500D02*
D03*
X458000D02*
D03*
Y444500D02*
D03*
X310500Y407689D02*
D03*
Y419500D02*
D03*
D67*
X321000Y358744D02*
D03*
Y353232D02*
D03*
X315488Y358744D02*
D03*
Y353232D02*
D03*
X309976Y358744D02*
D03*
Y353232D02*
D03*
X318244Y361500D02*
D03*
Y355988D02*
D03*
Y350476D02*
D03*
X312732Y361500D02*
D03*
Y350476D02*
D03*
Y355988D02*
D03*
M02*
