G04*
G04 #@! TF.GenerationSoftware,Altium Limited,Altium Designer,22.3.1 (43)*
G04*
G04 Layer_Color=16711935*
%FSLAX25Y25*%
%MOIN*%
G70*
G04*
G04 #@! TF.SameCoordinates,F2D03159-C11B-4201-A07A-7D52C7A15B01*
G04*
G04*
G04 #@! TF.FilePolarity,Negative*
G04*
G01*
G75*
%ADD12C,0.01000*%
%ADD59C,0.04737*%
%ADD60C,0.06800*%
%ADD61C,0.07000*%
%ADD62C,0.02800*%
%ADD63C,0.05800*%
D12*
X281000Y260500D02*
X491000D01*
X281000Y460500D02*
X491000D01*
Y260500D02*
Y460500D01*
X281000Y260500D02*
Y460500D01*
D59*
X472700Y393700D02*
D03*
Y362300D02*
D03*
D60*
X410000Y444500D02*
D03*
Y434500D02*
D03*
X458000D02*
D03*
Y444500D02*
D03*
X310500Y407689D02*
D03*
Y419500D02*
D03*
D61*
X381000Y272500D02*
D03*
X391000D02*
D03*
X361000D02*
D03*
X351000D02*
D03*
X294500Y447500D02*
D03*
X304500D02*
D03*
X323000D02*
D03*
X333000D02*
D03*
D62*
X399000Y371700D02*
D03*
X425500Y369100D02*
D03*
X412600Y369000D02*
D03*
X372500Y368600D02*
D03*
X361800Y349400D02*
D03*
X395400Y362200D02*
D03*
X425600Y356000D02*
D03*
Y364600D02*
D03*
Y386200D02*
D03*
X361000Y419500D02*
D03*
X321098Y289000D02*
D03*
X299000Y289500D02*
D03*
X292500D02*
D03*
X296000Y285500D02*
D03*
Y293000D02*
D03*
X344500Y296500D02*
D03*
X358000D02*
D03*
X379000Y286000D02*
D03*
X374000Y382300D02*
D03*
X425600Y382000D02*
D03*
X381800Y368900D02*
D03*
X367100Y330500D02*
D03*
X369500Y274000D02*
D03*
X468500Y299000D02*
D03*
X412000Y344400D02*
D03*
X418700Y312000D02*
D03*
X297500Y428000D02*
D03*
X322500Y434000D02*
D03*
X481500Y425000D02*
D03*
Y450000D02*
D03*
X435900Y369000D02*
D03*
X341000Y411500D02*
D03*
X300000Y388500D02*
D03*
X305000Y391000D02*
D03*
D63*
X371900Y392000D02*
D03*
X401900Y405800D02*
D03*
X415000Y388600D02*
D03*
X439800Y377500D02*
D03*
X362500Y394500D02*
D03*
X361500Y387500D02*
D03*
X426000Y424500D02*
D03*
X379000Y428500D02*
D03*
X364500Y403500D02*
D03*
X310000Y300000D02*
D03*
M02*
