G04*
G04 #@! TF.GenerationSoftware,Altium Limited,Altium Designer,22.6.1 (34)*
G04*
G04 Layer_Color=2752767*
%FSLAX25Y25*%
%MOIN*%
G70*
G04*
G04 #@! TF.SameCoordinates,25FD31E9-3CFC-4910-949B-E761997E39EF*
G04*
G04*
G04 #@! TF.FilePolarity,Positive*
G04*
G01*
G75*
%ADD12C,0.01000*%
%ADD70C,0.00200*%
%ADD71C,0.00267*%
D12*
X281000Y260500D02*
X491000D01*
X281000Y460500D02*
X491000D01*
Y260500D02*
Y460500D01*
X281000Y260500D02*
Y460500D01*
D70*
X471900Y393700D02*
X472700Y394500D01*
X473500Y393700D01*
X472700Y392900D01*
X471900Y393700D01*
Y362300D02*
X472700Y363100D01*
X473500Y362300D01*
X472700Y361500D01*
X471900Y362300D01*
X409600Y444100D02*
Y443700D01*
X410400D01*
Y444100D01*
X410800D01*
Y444900D01*
X410400D01*
Y445300D01*
X409600D01*
Y444900D01*
X409200D01*
Y444100D01*
X409600D01*
Y434100D02*
Y433700D01*
X410400D01*
Y434100D01*
X410800D01*
Y434900D01*
X410400D01*
Y435300D01*
X409600D01*
Y434900D01*
X409200D01*
Y434100D01*
X409600D01*
X457600D02*
Y433700D01*
X458400D01*
Y434100D01*
X458800D01*
Y434900D01*
X458400D01*
Y435300D01*
X457600D01*
Y434900D01*
X457200D01*
Y434100D01*
X457600D01*
Y444100D02*
Y443700D01*
X458400D01*
Y444100D01*
X458800D01*
Y444900D01*
X458400D01*
Y445300D01*
X457600D01*
Y444900D01*
X457200D01*
Y444100D01*
X457600D01*
X381000Y271700D02*
X381400Y272100D01*
X381800D01*
X381400Y272500D01*
X381800Y272900D01*
X381400D01*
X381000Y273300D01*
X380600Y272900D01*
X380200D01*
X380600Y272500D01*
X380200Y272100D01*
X380600D01*
X381000Y271700D01*
X391000D02*
X391400Y272100D01*
X391800D01*
X391400Y272500D01*
X391800Y272900D01*
X391400D01*
X391000Y273300D01*
X390600Y272900D01*
X390200D01*
X390600Y272500D01*
X390200Y272100D01*
X390600D01*
X391000Y271700D01*
X320200Y357944D02*
Y359544D01*
X321800D01*
Y357944D01*
X320200D01*
Y352432D02*
Y354032D01*
X321800D01*
Y352432D01*
X320200D01*
X314688Y357944D02*
Y359544D01*
X316288D01*
Y357944D01*
X314688D01*
Y352432D02*
Y354032D01*
X316288D01*
Y352432D01*
X314688D01*
X309176Y357944D02*
Y359544D01*
X310776D01*
Y357944D01*
X309176D01*
Y352432D02*
Y354032D01*
X310776D01*
Y352432D01*
X309176D01*
X317444Y360700D02*
Y362300D01*
X319044D01*
Y360700D01*
X317444D01*
Y355188D02*
Y356788D01*
X319044D01*
Y355188D01*
X317444D01*
Y349676D02*
Y351276D01*
X319044D01*
Y349676D01*
X317444D01*
X311932Y360700D02*
Y362300D01*
X313532D01*
Y360700D01*
X311932D01*
Y349676D02*
Y351276D01*
X313532D01*
Y349676D01*
X311932D01*
Y355188D02*
Y356788D01*
X313532D01*
Y355188D01*
X311932D01*
X361000Y271700D02*
X361400Y272100D01*
X361800D01*
X361400Y272500D01*
X361800Y272900D01*
X361400D01*
X361000Y273300D01*
X360600Y272900D01*
X360200D01*
X360600Y272500D01*
X360200Y272100D01*
X360600D01*
X361000Y271700D01*
X351000D02*
X351400Y272100D01*
X351800D01*
X351400Y272500D01*
X351800Y272900D01*
X351400D01*
X351000Y273300D01*
X350600Y272900D01*
X350200D01*
X350600Y272500D01*
X350200Y272100D01*
X350600D01*
X351000Y271700D01*
X294500Y446700D02*
X294900Y447100D01*
X295300D01*
X294900Y447500D01*
X295300Y447900D01*
X294900D01*
X294500Y448300D01*
X294100Y447900D01*
X293700D01*
X294100Y447500D01*
X293700Y447100D01*
X294100D01*
X294500Y446700D01*
X304500D02*
X304900Y447100D01*
X305300D01*
X304900Y447500D01*
X305300Y447900D01*
X304900D01*
X304500Y448300D01*
X304100Y447900D01*
X303700D01*
X304100Y447500D01*
X303700Y447100D01*
X304100D01*
X304500Y446700D01*
X323000D02*
X323400Y447100D01*
X323800D01*
X323400Y447500D01*
X323800Y447900D01*
X323400D01*
X323000Y448300D01*
X322600Y447900D01*
X322200D01*
X322600Y447500D01*
X322200Y447100D01*
X322600D01*
X323000Y446700D01*
X333000D02*
X333400Y447100D01*
X333800D01*
X333400Y447500D01*
X333800Y447900D01*
X333400D01*
X333000Y448300D01*
X332600Y447900D01*
X332200D01*
X332600Y447500D01*
X332200Y447100D01*
X332600D01*
X333000Y446700D01*
X398200Y370900D02*
X398600D01*
X399000Y371300D01*
X399400Y370900D01*
X399800D01*
Y371300D01*
X399400Y371700D01*
X399800Y372100D01*
Y372500D01*
X399400D01*
X399000Y372100D01*
X398600Y372500D01*
X398200D01*
Y372100D01*
X398600Y371700D01*
X398200Y371300D01*
Y370900D01*
X424700Y368300D02*
X425100D01*
X425500Y368700D01*
X425900Y368300D01*
X426300D01*
Y368700D01*
X425900Y369100D01*
X426300Y369500D01*
Y369900D01*
X425900D01*
X425500Y369500D01*
X425100Y369900D01*
X424700D01*
Y369500D01*
X425100Y369100D01*
X424700Y368700D01*
Y368300D01*
X371100Y391200D02*
X371500Y392000D01*
X371100Y392800D01*
X371900Y392400D01*
X372700Y392800D01*
X372300Y392000D01*
X372700Y391200D01*
X371900Y391600D01*
X371100Y391200D01*
X401100Y405000D02*
X401500Y405800D01*
X401100Y406600D01*
X401900Y406200D01*
X402700Y406600D01*
X402300Y405800D01*
X402700Y405000D01*
X401900Y405400D01*
X401100Y405000D01*
X414200Y387800D02*
X414600Y388600D01*
X414200Y389400D01*
X415000Y389000D01*
X415800Y389400D01*
X415400Y388600D01*
X415800Y387800D01*
X415000Y388200D01*
X414200Y387800D01*
X439000Y376700D02*
X439400Y377500D01*
X439000Y378300D01*
X439800Y377900D01*
X440600Y378300D01*
X440200Y377500D01*
X440600Y376700D01*
X439800Y377100D01*
X439000Y376700D01*
X411800Y368200D02*
X412200D01*
X412600Y368600D01*
X413000Y368200D01*
X413400D01*
Y368600D01*
X413000Y369000D01*
X413400Y369400D01*
Y369800D01*
X413000D01*
X412600Y369400D01*
X412200Y369800D01*
X411800D01*
Y369400D01*
X412200Y369000D01*
X411800Y368600D01*
Y368200D01*
X371700Y367800D02*
X372100D01*
X372500Y368200D01*
X372900Y367800D01*
X373300D01*
Y368200D01*
X372900Y368600D01*
X373300Y369000D01*
Y369400D01*
X372900D01*
X372500Y369000D01*
X372100Y369400D01*
X371700D01*
Y369000D01*
X372100Y368600D01*
X371700Y368200D01*
Y367800D01*
X361000Y348600D02*
X361400D01*
X361800Y349000D01*
X362200Y348600D01*
X362600D01*
Y349000D01*
X362200Y349400D01*
X362600Y349800D01*
Y350200D01*
X362200D01*
X361800Y349800D01*
X361400Y350200D01*
X361000D01*
Y349800D01*
X361400Y349400D01*
X361000Y349000D01*
Y348600D01*
X394600Y361400D02*
X395000D01*
X395400Y361800D01*
X395800Y361400D01*
X396200D01*
Y361800D01*
X395800Y362200D01*
X396200Y362600D01*
Y363000D01*
X395800D01*
X395400Y362600D01*
X395000Y363000D01*
X394600D01*
Y362600D01*
X395000Y362200D01*
X394600Y361800D01*
Y361400D01*
X424800Y355200D02*
X425200D01*
X425600Y355600D01*
X426000Y355200D01*
X426400D01*
Y355600D01*
X426000Y356000D01*
X426400Y356400D01*
Y356800D01*
X426000D01*
X425600Y356400D01*
X425200Y356800D01*
X424800D01*
Y356400D01*
X425200Y356000D01*
X424800Y355600D01*
Y355200D01*
Y363800D02*
X425200D01*
X425600Y364200D01*
X426000Y363800D01*
X426400D01*
Y364200D01*
X426000Y364600D01*
X426400Y365000D01*
Y365400D01*
X426000D01*
X425600Y365000D01*
X425200Y365400D01*
X424800D01*
Y365000D01*
X425200Y364600D01*
X424800Y364200D01*
Y363800D01*
Y385400D02*
X425200D01*
X425600Y385800D01*
X426000Y385400D01*
X426400D01*
Y385800D01*
X426000Y386200D01*
X426400Y386600D01*
Y387000D01*
X426000D01*
X425600Y386600D01*
X425200Y387000D01*
X424800D01*
Y386600D01*
X425200Y386200D01*
X424800Y385800D01*
Y385400D01*
X360200Y418700D02*
X360600D01*
X361000Y419100D01*
X361400Y418700D01*
X361800D01*
Y419100D01*
X361400Y419500D01*
X361800Y419900D01*
Y420300D01*
X361400D01*
X361000Y419900D01*
X360600Y420300D01*
X360200D01*
Y419900D01*
X360600Y419500D01*
X360200Y419100D01*
Y418700D01*
X320298Y288200D02*
X320698D01*
X321098Y288600D01*
X321498Y288200D01*
X321898D01*
Y288600D01*
X321498Y289000D01*
X321898Y289400D01*
Y289800D01*
X321498D01*
X321098Y289400D01*
X320698Y289800D01*
X320298D01*
Y289400D01*
X320698Y289000D01*
X320298Y288600D01*
Y288200D01*
X298200Y288700D02*
X298600D01*
X299000Y289100D01*
X299400Y288700D01*
X299800D01*
Y289100D01*
X299400Y289500D01*
X299800Y289900D01*
Y290300D01*
X299400D01*
X299000Y289900D01*
X298600Y290300D01*
X298200D01*
Y289900D01*
X298600Y289500D01*
X298200Y289100D01*
Y288700D01*
X291700D02*
X292100D01*
X292500Y289100D01*
X292900Y288700D01*
X293300D01*
Y289100D01*
X292900Y289500D01*
X293300Y289900D01*
Y290300D01*
X292900D01*
X292500Y289900D01*
X292100Y290300D01*
X291700D01*
Y289900D01*
X292100Y289500D01*
X291700Y289100D01*
Y288700D01*
X295200Y284700D02*
X295600D01*
X296000Y285100D01*
X296400Y284700D01*
X296800D01*
Y285100D01*
X296400Y285500D01*
X296800Y285900D01*
Y286300D01*
X296400D01*
X296000Y285900D01*
X295600Y286300D01*
X295200D01*
Y285900D01*
X295600Y285500D01*
X295200Y285100D01*
Y284700D01*
Y292200D02*
X295600D01*
X296000Y292600D01*
X296400Y292200D01*
X296800D01*
Y292600D01*
X296400Y293000D01*
X296800Y293400D01*
Y293800D01*
X296400D01*
X296000Y293400D01*
X295600Y293800D01*
X295200D01*
Y293400D01*
X295600Y293000D01*
X295200Y292600D01*
Y292200D01*
X343700Y295700D02*
X344100D01*
X344500Y296100D01*
X344900Y295700D01*
X345300D01*
Y296100D01*
X344900Y296500D01*
X345300Y296900D01*
Y297300D01*
X344900D01*
X344500Y296900D01*
X344100Y297300D01*
X343700D01*
Y296900D01*
X344100Y296500D01*
X343700Y296100D01*
Y295700D01*
X357200D02*
X357600D01*
X358000Y296100D01*
X358400Y295700D01*
X358800D01*
Y296100D01*
X358400Y296500D01*
X358800Y296900D01*
Y297300D01*
X358400D01*
X358000Y296900D01*
X357600Y297300D01*
X357200D01*
Y296900D01*
X357600Y296500D01*
X357200Y296100D01*
Y295700D01*
X378200Y285200D02*
X378600D01*
X379000Y285600D01*
X379400Y285200D01*
X379800D01*
Y285600D01*
X379400Y286000D01*
X379800Y286400D01*
Y286800D01*
X379400D01*
X379000Y286400D01*
X378600Y286800D01*
X378200D01*
Y286400D01*
X378600Y286000D01*
X378200Y285600D01*
Y285200D01*
X373200Y381500D02*
X373600D01*
X374000Y381900D01*
X374400Y381500D01*
X374800D01*
Y381900D01*
X374400Y382300D01*
X374800Y382700D01*
Y383100D01*
X374400D01*
X374000Y382700D01*
X373600Y383100D01*
X373200D01*
Y382700D01*
X373600Y382300D01*
X373200Y381900D01*
Y381500D01*
X424800Y381200D02*
X425200D01*
X425600Y381600D01*
X426000Y381200D01*
X426400D01*
Y381600D01*
X426000Y382000D01*
X426400Y382400D01*
Y382800D01*
X426000D01*
X425600Y382400D01*
X425200Y382800D01*
X424800D01*
Y382400D01*
X425200Y382000D01*
X424800Y381600D01*
Y381200D01*
X381000Y368100D02*
X381400D01*
X381800Y368500D01*
X382200Y368100D01*
X382600D01*
Y368500D01*
X382200Y368900D01*
X382600Y369300D01*
Y369700D01*
X382200D01*
X381800Y369300D01*
X381400Y369700D01*
X381000D01*
Y369300D01*
X381400Y368900D01*
X381000Y368500D01*
Y368100D01*
X366300Y329700D02*
X366700D01*
X367100Y330100D01*
X367500Y329700D01*
X367900D01*
Y330100D01*
X367500Y330500D01*
X367900Y330900D01*
Y331300D01*
X367500D01*
X367100Y330900D01*
X366700Y331300D01*
X366300D01*
Y330900D01*
X366700Y330500D01*
X366300Y330100D01*
Y329700D01*
X368700Y273200D02*
X369100D01*
X369500Y273600D01*
X369900Y273200D01*
X370300D01*
Y273600D01*
X369900Y274000D01*
X370300Y274400D01*
Y274800D01*
X369900D01*
X369500Y274400D01*
X369100Y274800D01*
X368700D01*
Y274400D01*
X369100Y274000D01*
X368700Y273600D01*
Y273200D01*
X467700Y298200D02*
X468100D01*
X468500Y298600D01*
X468900Y298200D01*
X469300D01*
Y298600D01*
X468900Y299000D01*
X469300Y299400D01*
Y299800D01*
X468900D01*
X468500Y299400D01*
X468100Y299800D01*
X467700D01*
Y299400D01*
X468100Y299000D01*
X467700Y298600D01*
Y298200D01*
X411200Y343600D02*
X411600D01*
X412000Y344000D01*
X412400Y343600D01*
X412800D01*
Y344000D01*
X412400Y344400D01*
X412800Y344800D01*
Y345200D01*
X412400D01*
X412000Y344800D01*
X411600Y345200D01*
X411200D01*
Y344800D01*
X411600Y344400D01*
X411200Y344000D01*
Y343600D01*
X417900Y311200D02*
X418300D01*
X418700Y311600D01*
X419100Y311200D01*
X419500D01*
Y311600D01*
X419100Y312000D01*
X419500Y312400D01*
Y312800D01*
X419100D01*
X418700Y312400D01*
X418300Y312800D01*
X417900D01*
Y312400D01*
X418300Y312000D01*
X417900Y311600D01*
Y311200D01*
X296700Y427200D02*
X297100D01*
X297500Y427600D01*
X297900Y427200D01*
X298300D01*
Y427600D01*
X297900Y428000D01*
X298300Y428400D01*
Y428800D01*
X297900D01*
X297500Y428400D01*
X297100Y428800D01*
X296700D01*
Y428400D01*
X297100Y428000D01*
X296700Y427600D01*
Y427200D01*
X321700Y433200D02*
X322100D01*
X322500Y433600D01*
X322900Y433200D01*
X323300D01*
Y433600D01*
X322900Y434000D01*
X323300Y434400D01*
Y434800D01*
X322900D01*
X322500Y434400D01*
X322100Y434800D01*
X321700D01*
Y434400D01*
X322100Y434000D01*
X321700Y433600D01*
Y433200D01*
X480700Y424200D02*
X481100D01*
X481500Y424600D01*
X481900Y424200D01*
X482300D01*
Y424600D01*
X481900Y425000D01*
X482300Y425400D01*
Y425800D01*
X481900D01*
X481500Y425400D01*
X481100Y425800D01*
X480700D01*
Y425400D01*
X481100Y425000D01*
X480700Y424600D01*
Y424200D01*
Y449200D02*
X481100D01*
X481500Y449600D01*
X481900Y449200D01*
X482300D01*
Y449600D01*
X481900Y450000D01*
X482300Y450400D01*
Y450800D01*
X481900D01*
X481500Y450400D01*
X481100Y450800D01*
X480700D01*
Y450400D01*
X481100Y450000D01*
X480700Y449600D01*
Y449200D01*
X435100Y368200D02*
X435500D01*
X435900Y368600D01*
X436300Y368200D01*
X436700D01*
Y368600D01*
X436300Y369000D01*
X436700Y369400D01*
Y369800D01*
X436300D01*
X435900Y369400D01*
X435500Y369800D01*
X435100D01*
Y369400D01*
X435500Y369000D01*
X435100Y368600D01*
Y368200D01*
X361700Y393700D02*
X362100Y394500D01*
X361700Y395300D01*
X362500Y394900D01*
X363300Y395300D01*
X362900Y394500D01*
X363300Y393700D01*
X362500Y394100D01*
X361700Y393700D01*
X360700Y386700D02*
X361100Y387500D01*
X360700Y388300D01*
X361500Y387900D01*
X362300Y388300D01*
X361900Y387500D01*
X362300Y386700D01*
X361500Y387100D01*
X360700Y386700D01*
X425200Y423700D02*
X425600Y424500D01*
X425200Y425300D01*
X426000Y424900D01*
X426800Y425300D01*
X426400Y424500D01*
X426800Y423700D01*
X426000Y424100D01*
X425200Y423700D01*
X378200Y427700D02*
X378600Y428500D01*
X378200Y429300D01*
X379000Y428900D01*
X379800Y429300D01*
X379400Y428500D01*
X379800Y427700D01*
X379000Y428100D01*
X378200Y427700D01*
X363700Y402700D02*
X364100Y403500D01*
X363700Y404300D01*
X364500Y403900D01*
X365300Y404300D01*
X364900Y403500D01*
X365300Y402700D01*
X364500Y403100D01*
X363700Y402700D01*
X340200Y410700D02*
X340600D01*
X341000Y411100D01*
X341400Y410700D01*
X341800D01*
Y411100D01*
X341400Y411500D01*
X341800Y411900D01*
Y412300D01*
X341400D01*
X341000Y411900D01*
X340600Y412300D01*
X340200D01*
Y411900D01*
X340600Y411500D01*
X340200Y411100D01*
Y410700D01*
X299200Y387700D02*
X299600D01*
X300000Y388100D01*
X300400Y387700D01*
X300800D01*
Y388100D01*
X300400Y388500D01*
X300800Y388900D01*
Y389300D01*
X300400D01*
X300000Y388900D01*
X299600Y389300D01*
X299200D01*
Y388900D01*
X299600Y388500D01*
X299200Y388100D01*
Y387700D01*
X304200Y390200D02*
X304600D01*
X305000Y390600D01*
X305400Y390200D01*
X305800D01*
Y390600D01*
X305400Y391000D01*
X305800Y391400D01*
Y391800D01*
X305400D01*
X305000Y391400D01*
X304600Y391800D01*
X304200D01*
Y391400D01*
X304600Y391000D01*
X304200Y390600D01*
Y390200D01*
X309200Y299200D02*
X309600Y300000D01*
X309200Y300800D01*
X310000Y300400D01*
X310800Y300800D01*
X310400Y300000D01*
X310800Y299200D01*
X310000Y299600D01*
X309200Y299200D01*
D71*
X311300Y407689D02*
G03*
X311300Y407689I-800J0D01*
G01*
Y419500D02*
G03*
X311300Y419500I-800J0D01*
G01*
M02*
