G04*
G04 #@! TF.GenerationSoftware,Altium Limited,Altium Designer,22.6.1 (34)*
G04*
G04 Layer_Physical_Order=1*
G04 Layer_Color=255*
%FSLAX25Y25*%
%MOIN*%
G70*
G04*
G04 #@! TF.SameCoordinates,25FD31E9-3CFC-4910-949B-E761997E39EF*
G04*
G04*
G04 #@! TF.FilePolarity,Positive*
G04*
G01*
G75*
%ADD12C,0.01000*%
%ADD19R,0.06500X0.07300*%
%ADD20R,0.09600X0.05700*%
%ADD21R,0.06500X0.05700*%
%ADD22R,0.05118X0.02756*%
%ADD23R,0.15748X0.08504*%
%ADD24R,0.04961X0.03543*%
%ADD25R,0.06299X0.04724*%
%ADD26R,0.09843X0.17717*%
%ADD27R,0.03000X0.02500*%
%ADD28R,0.05906X0.04724*%
%ADD29R,0.05906X0.09449*%
%ADD30R,0.02165X0.01968*%
%ADD31R,0.03900X0.07400*%
%ADD32R,0.03900X0.07450*%
%ADD33R,0.03543X0.05906*%
%ADD34R,0.05906X0.03543*%
%ADD35R,0.03543X0.03543*%
%ADD36R,0.09055X0.09055*%
%ADD37R,0.06000X0.04500*%
%ADD38R,0.04500X0.06000*%
%ADD39R,0.03543X0.04961*%
%ADD61C,0.07000*%
%ADD64C,0.02000*%
%ADD65C,0.03937*%
%ADD66C,0.06000*%
%ADD67C,0.01575*%
%ADD68C,0.02000*%
%ADD69C,0.05000*%
G36*
X488500Y263000D02*
X283500D01*
Y457500D01*
X488500D01*
Y263000D01*
D02*
G37*
%LPC*%
G36*
X333592Y452000D02*
X332408D01*
X331263Y451693D01*
X330237Y451101D01*
X329399Y450263D01*
X328807Y449237D01*
X328500Y448092D01*
Y446908D01*
X328807Y445763D01*
X329399Y444737D01*
X330237Y443899D01*
X331263Y443307D01*
X332408Y443000D01*
X333592D01*
X334737Y443307D01*
X335763Y443899D01*
X336601Y444737D01*
X337193Y445763D01*
X337500Y446908D01*
Y448092D01*
X337193Y449237D01*
X336601Y450263D01*
X335763Y451101D01*
X334737Y451693D01*
X333592Y452000D01*
D02*
G37*
G36*
X305092D02*
X303908D01*
X302763Y451693D01*
X301737Y451101D01*
X300899Y450263D01*
X300307Y449237D01*
X300000Y448092D01*
Y446908D01*
X300307Y445763D01*
X300899Y444737D01*
X301737Y443899D01*
X302763Y443307D01*
X303908Y443000D01*
X305092D01*
X306237Y443307D01*
X307263Y443899D01*
X308101Y444737D01*
X308693Y445763D01*
X309000Y446908D01*
Y448092D01*
X308693Y449237D01*
X308101Y450263D01*
X307263Y451101D01*
X306237Y451693D01*
X305092Y452000D01*
D02*
G37*
G36*
X295092D02*
X293908D01*
X292763Y451693D01*
X291737Y451101D01*
X290899Y450263D01*
X290307Y449237D01*
X290000Y448092D01*
Y446908D01*
X290307Y445763D01*
X290899Y444737D01*
X291737Y443899D01*
X292763Y443307D01*
X293908Y443000D01*
X295092D01*
X296237Y443307D01*
X297263Y443899D01*
X298101Y444737D01*
X298693Y445763D01*
X299000Y446908D01*
Y448092D01*
X298693Y449237D01*
X298101Y450263D01*
X297263Y451101D01*
X296237Y451693D01*
X295092Y452000D01*
D02*
G37*
G36*
X393000Y437750D02*
X385000D01*
Y436029D01*
X384415Y435913D01*
X383919Y435581D01*
X380152Y431815D01*
X379461Y432000D01*
X378539D01*
X377649Y431762D01*
X376851Y431301D01*
X376199Y430649D01*
X375739Y429851D01*
X375500Y428961D01*
Y428039D01*
X375739Y427149D01*
X376199Y426351D01*
X376851Y425699D01*
X377649Y425239D01*
X378539Y425000D01*
X379461D01*
X380351Y425239D01*
X381149Y425699D01*
X381801Y426351D01*
X382261Y427149D01*
X382500Y428039D01*
Y428961D01*
X382315Y429652D01*
X384538Y431875D01*
X385000Y431684D01*
Y431250D01*
X393000D01*
Y437750D01*
D02*
G37*
G36*
X442000Y446750D02*
X434000D01*
Y440250D01*
X442000D01*
Y441971D01*
X448366D01*
X454280Y436057D01*
X454273Y436044D01*
X454000Y435027D01*
Y433973D01*
X454273Y432956D01*
X454799Y432044D01*
X455544Y431299D01*
X456456Y430773D01*
X457473Y430500D01*
X458527D01*
X459544Y430773D01*
X460456Y431299D01*
X461201Y432044D01*
X461727Y432956D01*
X462000Y433973D01*
Y435027D01*
X461727Y436044D01*
X461201Y436956D01*
X460456Y437701D01*
X459544Y438227D01*
X458527Y438500D01*
X457473D01*
X456456Y438227D01*
X456443Y438220D01*
X450081Y444581D01*
X449585Y444913D01*
X449000Y445029D01*
X442000D01*
Y446750D01*
D02*
G37*
G36*
X393000Y445750D02*
X385000D01*
Y439250D01*
X393000D01*
Y440971D01*
X401367D01*
X406280Y436057D01*
X406273Y436044D01*
X406000Y435027D01*
Y433973D01*
X406273Y432956D01*
X406799Y432044D01*
X407544Y431299D01*
X408456Y430773D01*
X409473Y430500D01*
X410527D01*
X411544Y430773D01*
X412456Y431299D01*
X413201Y432044D01*
X413727Y432956D01*
X414000Y433973D01*
Y435027D01*
X413727Y436044D01*
X413201Y436956D01*
X412456Y437701D01*
X411544Y438227D01*
X410527Y438500D01*
X409473D01*
X408456Y438227D01*
X408443Y438220D01*
X403081Y443581D01*
X402585Y443913D01*
X402000Y444029D01*
X393000D01*
Y445750D01*
D02*
G37*
G36*
X442000Y438750D02*
X434000D01*
Y432250D01*
X436471D01*
Y430133D01*
X433132Y426795D01*
X428655D01*
X428149Y427301D01*
X427351Y427762D01*
X426461Y428000D01*
X425539D01*
X424649Y427762D01*
X423851Y427301D01*
X423199Y426649D01*
X422739Y425851D01*
X422500Y424961D01*
Y424039D01*
X422739Y423149D01*
X423199Y422351D01*
X423511Y422039D01*
X423304Y421539D01*
X407711D01*
Y422112D01*
X400750D01*
Y421539D01*
X358250D01*
X357470Y421384D01*
X356808Y420942D01*
X354616Y418750D01*
X349500D01*
Y412250D01*
X357500D01*
Y415866D01*
X359095Y417461D01*
X392089D01*
Y415003D01*
X388558Y411473D01*
X388116Y410811D01*
X387961Y410031D01*
Y394937D01*
X386244Y393220D01*
X385802Y392559D01*
X385647Y391778D01*
Y390950D01*
X383600D01*
Y384450D01*
X391600D01*
Y385661D01*
X393200D01*
Y384550D01*
X401200D01*
Y385661D01*
X403300D01*
Y384850D01*
X411300D01*
Y386311D01*
X412339D01*
X412851Y385799D01*
X413649Y385338D01*
X414539Y385100D01*
X415461D01*
X416351Y385338D01*
X417149Y385799D01*
X417801Y386451D01*
X418261Y387249D01*
X418500Y388139D01*
Y389061D01*
X418261Y389951D01*
X417801Y390749D01*
X417149Y391401D01*
X416351Y391862D01*
X415461Y392100D01*
X414539D01*
X413649Y391862D01*
X412851Y391401D01*
X412199Y390749D01*
X411992Y390389D01*
X411300D01*
Y391350D01*
X403300D01*
Y389739D01*
X401200D01*
Y391050D01*
X393200D01*
Y389739D01*
X391600D01*
Y390950D01*
X390395D01*
X390204Y391412D01*
X391442Y392650D01*
X391884Y393312D01*
X392039Y394092D01*
Y409186D01*
X395682Y412828D01*
X399050D01*
Y417461D01*
X400750D01*
Y416569D01*
X407711D01*
Y417461D01*
X450984D01*
X460861Y407584D01*
Y350379D01*
X461016Y349599D01*
X461458Y348938D01*
X462953Y347443D01*
Y346870D01*
X463108Y346090D01*
X463550Y345428D01*
X464722Y344257D01*
X464722Y344257D01*
X465383Y343815D01*
X466164Y343660D01*
X466736D01*
X467682Y342714D01*
X467490Y342252D01*
X467406D01*
Y331748D01*
X469461D01*
Y319252D01*
X467406D01*
Y308748D01*
X485153D01*
Y319252D01*
X473539D01*
Y331748D01*
X485153D01*
Y342252D01*
X473911D01*
X469927Y346237D01*
X470118Y346699D01*
X477592D01*
Y354399D01*
X465992D01*
Y350824D01*
X465530Y350633D01*
X464939Y351224D01*
Y408428D01*
X464784Y409209D01*
X464342Y409870D01*
X453270Y420942D01*
X452609Y421384D01*
X451828Y421539D01*
X428696D01*
X428489Y422039D01*
X428801Y422351D01*
X429261Y423149D01*
X429419Y423736D01*
X433765D01*
X434351Y423852D01*
X434847Y424184D01*
X439081Y428419D01*
X439413Y428915D01*
X439529Y429500D01*
Y432250D01*
X442000D01*
Y438750D01*
D02*
G37*
G36*
X477592Y416701D02*
X465992D01*
Y409001D01*
X477592D01*
Y416701D01*
D02*
G37*
G36*
X437853Y414450D02*
X429353D01*
Y405150D01*
X437853D01*
Y414450D01*
D02*
G37*
G36*
X311027Y423500D02*
X309973D01*
X308956Y423227D01*
X308044Y422701D01*
X307299Y421956D01*
X306773Y421044D01*
X306500Y420027D01*
Y418973D01*
X306773Y417956D01*
X307299Y417044D01*
X308044Y416299D01*
X308956Y415773D01*
X309973Y415500D01*
X311027D01*
X311492Y415625D01*
X313058Y414058D01*
X313720Y413616D01*
X314500Y413461D01*
X324500D01*
Y412250D01*
X329616D01*
X330654Y411212D01*
X330463Y410750D01*
X324500D01*
Y404250D01*
X332500D01*
Y406034D01*
X333858D01*
Y405579D01*
X334412D01*
Y404669D01*
X334528Y404084D01*
X334859Y403588D01*
X337690Y400757D01*
X337499Y400295D01*
X291529D01*
Y404116D01*
X293663Y406250D01*
X299500D01*
Y407971D01*
X306500D01*
Y407162D01*
X306773Y406145D01*
X307299Y405233D01*
X308044Y404488D01*
X308956Y403962D01*
X309973Y403689D01*
X311027D01*
X312044Y403962D01*
X312956Y404488D01*
X313701Y405233D01*
X314227Y406145D01*
X314500Y407162D01*
Y408216D01*
X314227Y409233D01*
X313701Y410145D01*
X312956Y410890D01*
X312044Y411416D01*
X311027Y411689D01*
X309973D01*
X308956Y411416D01*
X308044Y410890D01*
X308009Y410854D01*
X307921Y410913D01*
X307336Y411029D01*
X299500D01*
Y412750D01*
X291500D01*
Y408413D01*
X288919Y405831D01*
X288587Y405335D01*
X288471Y404750D01*
Y400295D01*
X287323D01*
Y392390D01*
X298471D01*
Y389799D01*
X298305Y389633D01*
X298000Y388898D01*
Y388102D01*
X298305Y387367D01*
X298867Y386805D01*
X299602Y386500D01*
X300398D01*
X301133Y386805D01*
X301695Y387367D01*
X302000Y388102D01*
Y388898D01*
X301695Y389633D01*
X301529Y389799D01*
Y392390D01*
X302908D01*
X303204Y391890D01*
X303000Y391398D01*
Y390602D01*
X303305Y389867D01*
X303867Y389304D01*
X304602Y389000D01*
X305398D01*
X306133Y389304D01*
X306696Y389867D01*
X307000Y390602D01*
Y391398D01*
X306796Y391890D01*
X307092Y392390D01*
X350656D01*
X351063Y392165D01*
X351063Y391890D01*
Y386622D01*
Y381622D01*
Y376622D01*
Y371622D01*
Y366622D01*
Y361622D01*
Y356622D01*
Y351622D01*
Y346622D01*
Y341622D01*
Y336622D01*
Y331898D01*
X351063Y331622D01*
X350656Y331398D01*
X287323D01*
Y323492D01*
X287961D01*
Y316750D01*
X284000D01*
Y310250D01*
X296741D01*
X299433Y307558D01*
X300095Y307116D01*
X300875Y306961D01*
X316500D01*
Y305750D01*
X319059D01*
Y301417D01*
X316949D01*
Y300094D01*
X313500D01*
Y300461D01*
X313262Y301351D01*
X312801Y302149D01*
X312149Y302801D01*
X311351Y303261D01*
X310461Y303500D01*
X309539D01*
X308649Y303261D01*
X307851Y302801D01*
X307199Y302149D01*
X306738Y301351D01*
X306500Y300461D01*
Y299539D01*
X306738Y298649D01*
X307199Y297851D01*
X307851Y297199D01*
X308649Y296739D01*
X309539Y296500D01*
X310461D01*
X310612Y296540D01*
X311164Y296171D01*
X311945Y296016D01*
X311945Y296016D01*
X316949D01*
Y294693D01*
X325248D01*
Y301417D01*
X323138D01*
Y305750D01*
X324500D01*
Y306961D01*
X327000D01*
Y305750D01*
X335000D01*
Y312250D01*
X327000D01*
Y311039D01*
X324500D01*
Y312250D01*
X316500D01*
Y311039D01*
X301720D01*
X300000Y312759D01*
Y316750D01*
X292039D01*
Y323492D01*
X293577D01*
X293676Y322993D01*
X294008Y322497D01*
X296086Y320419D01*
X296582Y320087D01*
X297167Y319971D01*
X325116D01*
X327000Y318087D01*
Y313750D01*
X335000D01*
Y315471D01*
X337000D01*
Y313750D01*
X345000D01*
Y315471D01*
X376885D01*
X381937Y310419D01*
X382433Y310087D01*
X383018Y309971D01*
X405367D01*
X426591Y288747D01*
X426466Y288445D01*
X426466D01*
Y281721D01*
X434371D01*
Y288445D01*
X431218D01*
X407081Y312581D01*
X406585Y312913D01*
X406000Y313029D01*
X383652D01*
X378600Y318081D01*
X378104Y318413D01*
X377518Y318529D01*
X345000D01*
Y319221D01*
X373073D01*
X373123Y319187D01*
X373708Y319071D01*
X430267D01*
X433800Y315537D01*
Y309950D01*
X441800D01*
Y311971D01*
X443626D01*
Y308748D01*
X461374D01*
Y319252D01*
X443626D01*
Y315029D01*
X441800D01*
Y316450D01*
X437213D01*
X431981Y321681D01*
X431485Y322013D01*
X430900Y322129D01*
X428546D01*
X428354Y322591D01*
X433763Y328000D01*
X434094Y328496D01*
X434211Y329081D01*
Y331139D01*
X435514D01*
X436099Y331256D01*
X436596Y331587D01*
X437181Y332173D01*
X437513Y332669D01*
X437629Y333254D01*
Y333669D01*
X441181D01*
Y334971D01*
X443626D01*
Y331748D01*
X461374D01*
Y342252D01*
X443626D01*
Y338029D01*
X441181D01*
Y340169D01*
X433181D01*
Y334123D01*
X432975Y334082D01*
X432479Y333750D01*
X431600Y332871D01*
X431269Y332375D01*
X431152Y331790D01*
Y329715D01*
X425617Y324179D01*
X352866D01*
Y331122D01*
X352866Y331398D01*
X353273Y331622D01*
X358968D01*
Y336622D01*
Y341622D01*
Y347871D01*
X360501D01*
X360667Y347705D01*
X361402Y347400D01*
X362198D01*
X362933Y347705D01*
X363495Y348267D01*
X363800Y349002D01*
Y349798D01*
X363495Y350533D01*
X362933Y351096D01*
X362198Y351400D01*
X361402D01*
X360667Y351096D01*
X360501Y350929D01*
X358968D01*
Y352864D01*
X397994D01*
X398579Y352981D01*
X399075Y353312D01*
X412763Y367000D01*
X412998D01*
X413733Y367304D01*
X414295Y367867D01*
X414600Y368602D01*
Y369398D01*
X414295Y370133D01*
X413733Y370695D01*
X412998Y371000D01*
X412202D01*
X411467Y370695D01*
X410905Y370133D01*
X410600Y369398D01*
Y369163D01*
X397360Y355923D01*
X358968D01*
Y357864D01*
X396429D01*
X397014Y357981D01*
X397511Y358312D01*
X411125Y371926D01*
X426998D01*
Y371078D01*
X434116D01*
Y375604D01*
X436853D01*
X436999Y375351D01*
X437651Y374699D01*
X438449Y374238D01*
X439339Y374000D01*
X440261D01*
X441151Y374238D01*
X441949Y374699D01*
X442601Y375351D01*
X443061Y376149D01*
X443300Y377039D01*
Y377961D01*
X443061Y378851D01*
X442601Y379649D01*
X441949Y380301D01*
X441151Y380762D01*
X440261Y381000D01*
X439339D01*
X438449Y380762D01*
X437651Y380301D01*
X437033Y379682D01*
X434116D01*
Y384070D01*
Y388401D01*
Y393157D01*
X426998D01*
Y388286D01*
X426996Y388283D01*
X426498Y387993D01*
X425998Y388200D01*
X425763D01*
X416781Y397181D01*
X416285Y397513D01*
X415700Y397629D01*
X411300D01*
Y399350D01*
X403300D01*
Y392850D01*
X411300D01*
Y394571D01*
X415066D01*
X423600Y386037D01*
Y385802D01*
X423905Y385067D01*
X424467Y384505D01*
X424790Y384371D01*
Y383829D01*
X424467Y383696D01*
X424301Y383529D01*
X400150D01*
X399565Y383413D01*
X399069Y383081D01*
X399037Y383050D01*
X393200D01*
Y376550D01*
X401200D01*
Y380471D01*
X424301D01*
X424467Y380305D01*
X425202Y380000D01*
X425998D01*
X426498Y380207D01*
X426996Y379917D01*
X426998Y379914D01*
Y374985D01*
X410491D01*
X409906Y374869D01*
X409410Y374537D01*
X397803Y362931D01*
X397214Y363048D01*
X397095Y363333D01*
X396929Y363499D01*
Y366175D01*
X396813Y366760D01*
X396481Y367256D01*
X389129Y374608D01*
Y376450D01*
X391600D01*
Y382950D01*
X383600D01*
Y376450D01*
X386071D01*
Y373975D01*
X386187Y373390D01*
X386519Y372894D01*
X393083Y366329D01*
X392876Y365829D01*
X358968D01*
Y367671D01*
X370720D01*
X370805Y367467D01*
X371367Y366904D01*
X372102Y366600D01*
X372898D01*
X373633Y366904D01*
X374196Y367467D01*
X374500Y368202D01*
Y368998D01*
X374196Y369733D01*
X373633Y370296D01*
X372898Y370600D01*
X372234D01*
X372215Y370613D01*
X371629Y370729D01*
X358968D01*
Y377637D01*
X364124D01*
X364709Y377753D01*
X365205Y378085D01*
X372981Y385861D01*
X373313Y386357D01*
X373429Y386943D01*
Y388842D01*
X374049Y389199D01*
X374701Y389851D01*
X375162Y390649D01*
X375400Y391539D01*
Y392461D01*
X375162Y393351D01*
X374701Y394149D01*
X374049Y394801D01*
X373251Y395262D01*
X372361Y395500D01*
X371439D01*
X370549Y395262D01*
X369751Y394801D01*
X369099Y394149D01*
X368638Y393351D01*
X368400Y392461D01*
Y391539D01*
X368638Y390649D01*
X369099Y389851D01*
X369751Y389199D01*
X370371Y388842D01*
Y387576D01*
X363490Y380696D01*
X358968D01*
Y382879D01*
X359479Y382981D01*
X359975Y383312D01*
X360742Y384080D01*
X361039Y384000D01*
X361961D01*
X362851Y384239D01*
X363649Y384699D01*
X364301Y385351D01*
X364761Y386149D01*
X365000Y387039D01*
Y387961D01*
X364761Y388851D01*
X364301Y389649D01*
X363649Y390301D01*
X363216Y390551D01*
X363287Y391087D01*
X363851Y391238D01*
X364649Y391699D01*
X365301Y392351D01*
X365761Y393149D01*
X366000Y394039D01*
Y394961D01*
X365761Y395851D01*
X365301Y396649D01*
X364649Y397301D01*
X363851Y397762D01*
X362961Y398000D01*
X362039D01*
X361808Y397938D01*
X361549Y398386D01*
X363348Y400185D01*
X364039Y400000D01*
X364961D01*
X365851Y400239D01*
X366649Y400699D01*
X367301Y401351D01*
X367761Y402149D01*
X368000Y403039D01*
Y403961D01*
X367761Y404851D01*
X367301Y405649D01*
X366649Y406301D01*
X365851Y406762D01*
X364961Y407000D01*
X364039D01*
X363149Y406762D01*
X362351Y406301D01*
X361699Y405649D01*
X361239Y404851D01*
X361000Y403961D01*
Y403039D01*
X361185Y402348D01*
X359162Y400325D01*
X351366D01*
X351218Y400295D01*
X346529D01*
Y401866D01*
X347042Y402379D01*
X347374Y402875D01*
X347490Y403461D01*
Y405579D01*
X348142D01*
Y406034D01*
X349500D01*
Y404250D01*
X357500D01*
Y410750D01*
X349500D01*
Y409092D01*
X348142D01*
Y409547D01*
X344953D01*
Y413453D01*
X348142D01*
Y417421D01*
X343976D01*
Y417224D01*
X338024D01*
Y417421D01*
X333858D01*
Y414429D01*
X333396Y414237D01*
X332500Y415134D01*
Y418750D01*
X324500D01*
Y417539D01*
X315345D01*
X314375Y418508D01*
X314500Y418973D01*
Y420027D01*
X314227Y421044D01*
X313701Y421956D01*
X312956Y422701D01*
X312044Y423227D01*
X311027Y423500D01*
D02*
G37*
G36*
X407711Y414632D02*
X400750D01*
Y409115D01*
X400549Y409061D01*
X399751Y408601D01*
X399099Y407949D01*
X398639Y407151D01*
X398400Y406261D01*
Y405339D01*
X398639Y404449D01*
X399099Y403651D01*
X399751Y402999D01*
X400549Y402538D01*
X401439Y402300D01*
X402361D01*
X403251Y402538D01*
X404049Y402999D01*
X404701Y403651D01*
X405162Y404449D01*
X405400Y405339D01*
Y406261D01*
X405162Y407151D01*
X405086Y407281D01*
X405312Y407507D01*
X405644Y408003D01*
X405760Y408588D01*
Y409088D01*
X407711D01*
Y414632D01*
D02*
G37*
G36*
X473091Y396669D02*
X472309D01*
X471554Y396466D01*
X470877Y396075D01*
X470325Y395523D01*
X469934Y394846D01*
X469732Y394091D01*
Y393309D01*
X469934Y392554D01*
X470325Y391877D01*
X470877Y391325D01*
X471554Y390934D01*
X472309Y390732D01*
X473091D01*
X473846Y390934D01*
X474523Y391325D01*
X475075Y391877D01*
X475466Y392554D01*
X475668Y393309D01*
Y394091D01*
X475466Y394846D01*
X475075Y395523D01*
X474523Y396075D01*
X473846Y396466D01*
X473091Y396669D01*
D02*
G37*
G36*
X434116Y367172D02*
X426998D01*
Y366686D01*
X426996Y366683D01*
X426498Y366393D01*
X425998Y366600D01*
X425202D01*
X424467Y366296D01*
X423905Y365733D01*
X423600Y364998D01*
Y364202D01*
X423905Y363467D01*
X424467Y362905D01*
X425202Y362600D01*
X425998D01*
X426498Y362807D01*
X426996Y362517D01*
X426998Y362514D01*
Y358086D01*
X426996Y358083D01*
X426498Y357793D01*
X425998Y358000D01*
X425202D01*
X424467Y357696D01*
X423905Y357133D01*
X423600Y356398D01*
Y355602D01*
X423905Y354867D01*
X424467Y354305D01*
X425202Y354000D01*
X425998D01*
X426498Y354207D01*
X426996Y353917D01*
X426998Y353914D01*
Y353755D01*
X429353D01*
Y346699D01*
X437853D01*
Y354399D01*
X434116D01*
Y358086D01*
Y362417D01*
Y367172D01*
D02*
G37*
G36*
X473091Y365268D02*
X472309D01*
X471554Y365066D01*
X470877Y364675D01*
X470325Y364123D01*
X469934Y363446D01*
X469732Y362691D01*
Y361909D01*
X469934Y361154D01*
X470325Y360477D01*
X470877Y359925D01*
X471554Y359534D01*
X472309Y359331D01*
X473091D01*
X473846Y359534D01*
X474523Y359925D01*
X475075Y360477D01*
X475466Y361154D01*
X475668Y361909D01*
Y362691D01*
X475466Y363446D01*
X475075Y364123D01*
X474523Y364675D01*
X473846Y365066D01*
X473091Y365268D01*
D02*
G37*
G36*
X455100Y396775D02*
X445800D01*
X445312Y396677D01*
X444899Y396401D01*
X444623Y395988D01*
X444525Y395500D01*
Y356300D01*
X444623Y355812D01*
X444899Y355399D01*
X445312Y355122D01*
X445800Y355026D01*
X455100D01*
X455588Y355122D01*
X456001Y355399D01*
X456278Y355812D01*
X456375Y356300D01*
Y395500D01*
X456278Y395988D01*
X456001Y396401D01*
X455588Y396677D01*
X455100Y396775D01*
D02*
G37*
G36*
X392531Y306642D02*
X386988D01*
Y305839D01*
X381000D01*
Y306050D01*
X376000D01*
Y301550D01*
X381000D01*
Y301761D01*
X386988D01*
Y299681D01*
X392531D01*
Y306642D01*
D02*
G37*
G36*
X372328Y302028D02*
X361272D01*
Y293856D01*
X355595Y288179D01*
X352557D01*
X352557Y288179D01*
X351777Y288024D01*
X351142Y287600D01*
X348139D01*
Y283039D01*
X335000D01*
Y284250D01*
X327000D01*
Y281984D01*
X325248D01*
Y283307D01*
X316949D01*
Y276583D01*
X325248D01*
Y277906D01*
X327000D01*
Y277750D01*
X335000D01*
Y278961D01*
X348139D01*
Y278200D01*
X354039D01*
Y284101D01*
X356440D01*
X357221Y284256D01*
X357882Y284698D01*
X359488Y286304D01*
X359950Y286113D01*
Y281062D01*
X359558Y280670D01*
X359116Y280009D01*
X358961Y279228D01*
Y276519D01*
X358237Y276101D01*
X357399Y275263D01*
X356807Y274237D01*
X356500Y273092D01*
Y271908D01*
X356807Y270763D01*
X357399Y269737D01*
X358237Y268899D01*
X359263Y268307D01*
X360408Y268000D01*
X361592D01*
X362737Y268307D01*
X363763Y268899D01*
X364601Y269737D01*
X365193Y270763D01*
X365500Y271908D01*
Y273092D01*
X365193Y274237D01*
X364601Y275263D01*
X363763Y276101D01*
X363039Y276519D01*
Y278175D01*
X365850D01*
Y287625D01*
X361462D01*
X361271Y288087D01*
X364156Y290972D01*
X372328D01*
Y292161D01*
X376000D01*
Y291950D01*
X381000D01*
Y292161D01*
X383248D01*
Y291020D01*
X383961D01*
Y290000D01*
X383750D01*
Y282000D01*
X390250D01*
Y290000D01*
X388039D01*
Y291020D01*
X388791D01*
Y297980D01*
X383248D01*
Y296239D01*
X381000D01*
Y296450D01*
X376000D01*
Y296239D01*
X372328D01*
Y302028D01*
D02*
G37*
G36*
X458750Y294500D02*
X452250D01*
Y289413D01*
X449363Y286526D01*
X449032Y286030D01*
X448915Y285445D01*
Y281752D01*
X436846D01*
Y277895D01*
X434371D01*
Y280178D01*
X426466D01*
Y273453D01*
X434371D01*
Y274837D01*
X436846D01*
Y271248D01*
X454595D01*
Y281752D01*
X451974D01*
Y284811D01*
X453663Y286500D01*
X458750D01*
Y294500D01*
D02*
G37*
G36*
X396272Y297980D02*
X390728D01*
Y291020D01*
X391461D01*
Y277016D01*
X391445Y277000D01*
X390408D01*
X389263Y276693D01*
X388237Y276101D01*
X387399Y275263D01*
X386807Y274237D01*
X386500Y273092D01*
Y271908D01*
X386807Y270763D01*
X387399Y269737D01*
X388237Y268899D01*
X389263Y268307D01*
X390408Y268000D01*
X391592D01*
X392737Y268307D01*
X393763Y268899D01*
X394601Y269737D01*
X395193Y270763D01*
X395500Y271908D01*
Y273092D01*
X395193Y274237D01*
X394921Y274709D01*
X394942Y274730D01*
X395384Y275391D01*
X395539Y276172D01*
Y291020D01*
X396272D01*
Y297980D01*
D02*
G37*
%LPD*%
G36*
X359831Y396781D02*
X359699Y396649D01*
X359239Y395851D01*
X359000Y394961D01*
Y394360D01*
X356806Y392165D01*
X353273D01*
X352866Y392390D01*
X352866Y392665D01*
Y397266D01*
X359609D01*
X359831Y396781D01*
D02*
G37*
G36*
X393400Y362037D02*
Y361802D01*
X393557Y361423D01*
X393223Y360923D01*
X358968D01*
Y362771D01*
X392667D01*
X393400Y362037D01*
D02*
G37*
G36*
X335285Y323246D02*
X337781Y320750D01*
X337574Y320250D01*
X337000D01*
Y318529D01*
X335000D01*
Y320250D01*
X329163D01*
X326831Y322581D01*
X326335Y322913D01*
X325937Y322992D01*
X325987Y323492D01*
X335120D01*
X335285Y323246D01*
D02*
G37*
G36*
X453826Y357575D02*
X447075D01*
Y394226D01*
X453826D01*
Y357575D01*
D02*
G37*
D12*
X373708Y320600D02*
X430900D01*
X438300Y313200D01*
X343044Y322650D02*
X426250D01*
X373558Y320750D02*
X373708Y320600D01*
X341407Y321600D02*
X342257Y320750D01*
X373558D01*
X339094Y321600D02*
X341407D01*
X336366Y324327D02*
X339094Y321600D01*
X426250Y322650D02*
X432681Y329081D01*
X438300Y313500D02*
X452000D01*
X437431Y336500D02*
X453000D01*
X436100Y335169D02*
X437431Y336500D01*
X436100Y333254D02*
Y335169D01*
X435514Y332669D02*
X436100Y333254D01*
X433560Y332669D02*
X435514D01*
X432681Y331790D02*
X433560Y332669D01*
X432681Y329081D02*
Y331790D01*
X341366Y324327D02*
X343044Y322650D01*
X401900Y405800D02*
Y406257D01*
X404231Y408588D02*
Y411860D01*
X401900Y406257D02*
X404231Y408588D01*
X364124Y379166D02*
X371900Y386943D01*
Y392000D01*
X355469Y379166D02*
X364124D01*
X400150Y382000D02*
X430439D01*
X397950Y379800D02*
X400150Y382000D01*
X397200Y379800D02*
X397950D01*
X396429Y359394D02*
X410491Y373456D01*
X430557D01*
X355016Y354394D02*
X397994D01*
X412600Y369000D01*
X371629Y369200D02*
X372229Y368600D01*
X355209Y369200D02*
X371629D01*
X372229Y368600D02*
X372500D01*
X355016Y369394D02*
X355209Y369200D01*
X355016Y349394D02*
X355022Y349400D01*
X361800D01*
X430433Y386324D02*
X430557Y386448D01*
X425724Y386324D02*
X430433D01*
X425600Y386200D02*
X425724Y386324D01*
X407300Y396100D02*
X415700D01*
X425600Y386200D01*
X387600Y373975D02*
X395400Y366175D01*
Y362200D02*
Y366175D01*
X393300Y364300D02*
X395400Y362200D01*
X355109Y364300D02*
X393300D01*
X387600Y373975D02*
Y379700D01*
X355016Y364394D02*
X355109Y364300D01*
X425600Y356000D02*
X425667Y356066D01*
X430490D02*
X430557Y356133D01*
X425667Y356066D02*
X430490D01*
X425697Y364697D02*
X430459D01*
X430557Y364794D01*
X425600Y364600D02*
X425697Y364697D01*
X430439Y382000D02*
X430557Y382117D01*
X355016Y359394D02*
X396429D01*
X450445Y276500D02*
Y285445D01*
X430419Y276366D02*
X448866D01*
X341000Y317000D02*
X377518D01*
X383018Y311500D01*
X406000D01*
X431004Y286496D01*
X340000Y396500D02*
Y400610D01*
X335941Y404669D02*
X340000Y400610D01*
X345000Y402500D02*
X345961Y403461D01*
Y407563D01*
X345000Y396500D02*
Y402500D01*
X335941Y407559D02*
X336000Y407500D01*
X335937Y407563D02*
X335941Y407559D01*
Y407563D01*
Y404669D02*
Y407559D01*
X341366Y324327D02*
Y326173D01*
X340094Y327445D02*
X341366Y326173D01*
X336366Y324327D02*
Y326173D01*
X335094Y327445D02*
X336366Y326173D01*
X402000Y442500D02*
X410000Y434500D01*
Y433500D02*
Y434500D01*
X389000Y442500D02*
X402000D01*
X438000Y443500D02*
X449000D01*
X458000Y434500D01*
X385000D02*
X389000D01*
X379000Y428500D02*
X385000Y434500D01*
X358894Y384394D02*
X362000Y387500D01*
X362500Y394500D02*
X363000D01*
X361303D02*
X362500D01*
X356197Y389394D02*
X361303Y394500D01*
X355016Y389394D02*
X356197D01*
X355016Y384394D02*
X358894D01*
X438000Y429500D02*
Y435500D01*
X433765Y425265D02*
X438000Y429500D01*
X426765Y425265D02*
X433765D01*
X426000Y424500D02*
X426765Y425265D01*
X448866Y276366D02*
X449500Y277000D01*
X450445Y285445D02*
X455500Y290500D01*
X350095Y396342D02*
Y397524D01*
X351366Y398795D01*
X359795D01*
X364500Y403500D01*
X328500Y407500D02*
X328563Y407563D01*
X335937D01*
X353437D02*
X353500Y407500D01*
X346063Y407563D02*
X353437D01*
X290000Y396500D02*
Y404750D01*
X294750Y409500D01*
X295500D01*
X309336Y407500D02*
X310000D01*
X295500Y409500D02*
X307336D01*
X309336Y407500D01*
X295089Y327439D02*
X295094Y327445D01*
X297167Y321500D02*
X325750D01*
X295089Y323578D02*
Y327439D01*
Y323578D02*
X297167Y321500D01*
X330250Y317000D02*
X331000D01*
X325750Y321500D02*
X330250Y317000D01*
X331000D02*
X341000D01*
X300000Y388500D02*
Y396248D01*
X305000Y391000D02*
Y396248D01*
X305095Y396342D01*
X300000Y396248D02*
X300095Y396342D01*
X281000Y260500D02*
X491000D01*
X281000Y460500D02*
X491000D01*
Y260500D02*
Y460500D01*
X281000Y260500D02*
Y460500D01*
D19*
X433603Y409800D02*
D03*
D20*
X471792Y412851D02*
D03*
Y350549D02*
D03*
D21*
X433603D02*
D03*
D22*
X430557Y356133D02*
D03*
Y360464D02*
D03*
Y364794D02*
D03*
Y369125D02*
D03*
Y373456D02*
D03*
Y377787D02*
D03*
Y382117D02*
D03*
Y386448D02*
D03*
Y390779D02*
D03*
D23*
X452500Y337000D02*
D03*
X476279D02*
D03*
X469500Y276500D02*
D03*
X445720D02*
D03*
X476279Y314000D02*
D03*
X452500D02*
D03*
D24*
X395569Y415600D02*
D03*
X404231Y411860D02*
D03*
Y419340D02*
D03*
D25*
X321098Y298055D02*
D03*
Y279945D02*
D03*
Y289000D02*
D03*
D26*
X295902D02*
D03*
D27*
X378500Y294200D02*
D03*
Y303800D02*
D03*
D28*
X430419Y285083D02*
D03*
Y276815D02*
D03*
D29*
X341000Y411500D02*
D03*
D30*
X335941Y415437D02*
D03*
Y411500D02*
D03*
Y407563D02*
D03*
X346059Y415437D02*
D03*
Y411500D02*
D03*
Y407563D02*
D03*
D31*
X351089Y282900D02*
D03*
D32*
X362900D02*
D03*
D33*
X285094Y396342D02*
D03*
X290094D02*
D03*
X295094D02*
D03*
X300095D02*
D03*
X305095D02*
D03*
X310094D02*
D03*
X315094D02*
D03*
X320094D02*
D03*
X325095D02*
D03*
X330095D02*
D03*
X335094D02*
D03*
X340094D02*
D03*
X345094D02*
D03*
X350095D02*
D03*
Y327445D02*
D03*
X345094D02*
D03*
X340094D02*
D03*
X335094D02*
D03*
X330095D02*
D03*
X325095D02*
D03*
X320094D02*
D03*
X315094D02*
D03*
X310094D02*
D03*
X305095D02*
D03*
X300095D02*
D03*
X295094D02*
D03*
X290094D02*
D03*
X285094D02*
D03*
D34*
X355016Y389394D02*
D03*
Y384394D02*
D03*
Y379394D02*
D03*
Y374394D02*
D03*
Y369394D02*
D03*
Y364394D02*
D03*
Y359394D02*
D03*
Y354394D02*
D03*
Y349394D02*
D03*
Y344394D02*
D03*
Y339394D02*
D03*
Y334394D02*
D03*
D35*
X309976Y361500D02*
D03*
Y355988D02*
D03*
Y350476D02*
D03*
X321000Y361500D02*
D03*
Y355988D02*
D03*
Y350476D02*
D03*
X315488Y361500D02*
D03*
Y350476D02*
D03*
Y355988D02*
D03*
D36*
X351200Y296500D02*
D03*
X366800D02*
D03*
D37*
X397200Y387800D02*
D03*
Y379800D02*
D03*
X288000Y313500D02*
D03*
Y305500D02*
D03*
X341000Y309000D02*
D03*
Y317000D02*
D03*
X331000Y309000D02*
D03*
Y317000D02*
D03*
X295500Y417500D02*
D03*
Y409500D02*
D03*
X320500Y309000D02*
D03*
Y317000D02*
D03*
X328500Y415500D02*
D03*
Y407500D02*
D03*
X353500Y415500D02*
D03*
Y407500D02*
D03*
X331000Y281000D02*
D03*
Y289000D02*
D03*
X438000Y435500D02*
D03*
Y443500D02*
D03*
X389000Y434500D02*
D03*
Y442500D02*
D03*
X437800Y313200D02*
D03*
Y305200D02*
D03*
X437181Y328919D02*
D03*
Y336919D02*
D03*
X296000Y313500D02*
D03*
Y305500D02*
D03*
X407300Y388100D02*
D03*
Y396100D02*
D03*
X387600Y387700D02*
D03*
Y379700D02*
D03*
D38*
X455500Y290500D02*
D03*
X463500D02*
D03*
X387000Y286000D02*
D03*
X379000D02*
D03*
D39*
X393500Y294500D02*
D03*
X386020D02*
D03*
X389760Y303161D02*
D03*
D61*
X381000Y272500D02*
D03*
X391000D02*
D03*
X361000D02*
D03*
X351000D02*
D03*
X294500Y447500D02*
D03*
X304500D02*
D03*
X323000D02*
D03*
X333000D02*
D03*
D64*
X361000Y419500D02*
X404231D01*
X451828D01*
X462900Y408428D01*
Y350379D02*
X464992Y348287D01*
X462900Y350379D02*
Y408428D01*
X387686Y391778D02*
X390000Y394092D01*
Y410031D02*
X395569Y415600D01*
X390000Y394092D02*
Y410031D01*
X407950Y388350D02*
X414750D01*
X397200Y387700D02*
X407300D01*
X414750Y388350D02*
X415000Y388600D01*
X407300Y387700D02*
X407950Y388350D01*
X387600Y387700D02*
X397200D01*
X430557Y377787D02*
X430700Y377643D01*
X439657D01*
X439800Y377500D01*
X387686Y387786D02*
Y391778D01*
X387600Y387700D02*
X387686Y387786D01*
X430557Y377787D02*
X430935Y378165D01*
X464992Y346870D02*
Y348287D01*
X467581Y345699D02*
X476279Y337000D01*
X464992Y346870D02*
X466164Y345699D01*
X467581D01*
X471555Y337000D02*
X472805D01*
X471500Y313500D02*
Y336945D01*
X296000Y313500D02*
X296375D01*
X288000D02*
X296000D01*
X393500Y276172D02*
Y294500D01*
X391272Y273943D02*
X393500Y276172D01*
X391272Y273728D02*
Y273943D01*
X378500Y294200D02*
X385720D01*
X369100D02*
X378500D01*
X366800Y296500D02*
X369100Y294200D01*
X385720D02*
X386020Y294500D01*
X389121Y303800D02*
X389760Y303161D01*
X378500Y303800D02*
X389121D01*
X361000Y279228D02*
X362900Y281128D01*
X361000Y272500D02*
Y279228D01*
X362900Y281128D02*
Y282900D01*
X351095Y282345D02*
Y283500D01*
X351089Y282900D02*
Y284672D01*
X352557Y286140D01*
X356440D01*
X366800Y296500D01*
X331000Y281000D02*
X349621D01*
X351089Y282469D01*
Y282900D01*
X296375Y313500D02*
X300875Y309000D01*
X329945Y279945D02*
X331000Y281000D01*
X321098Y279945D02*
X329945D01*
X471500Y336945D02*
X471555Y337000D01*
X358250Y419500D02*
X361000D01*
X353500Y415500D02*
X354250D01*
X358250Y419500D01*
X328500Y415500D02*
X329250D01*
X335941Y411500D02*
X336000D01*
X333250D02*
X335941D01*
X329250Y415500D02*
X333250Y411500D01*
X314500Y415500D02*
X328500D01*
X310500Y419500D02*
X314500Y415500D01*
X386000Y294480D02*
X386020Y294500D01*
X386000Y287000D02*
Y294480D01*
X387000Y286000D02*
Y286750D01*
X311945Y298055D02*
X321098D01*
X310000Y300000D02*
X311945Y298055D01*
X290000Y327350D02*
X290094Y327445D01*
X290000Y315500D02*
Y327350D01*
X300875Y309000D02*
X320500D01*
X331000D01*
X320500D02*
X321098Y308402D01*
Y298055D02*
Y308402D01*
D65*
X472700Y393700D02*
D03*
Y362300D02*
D03*
D66*
X410000Y444500D02*
D03*
Y434500D02*
D03*
X458000D02*
D03*
Y444500D02*
D03*
X310500Y407689D02*
D03*
Y419500D02*
D03*
D67*
X321000Y358744D02*
D03*
Y353232D02*
D03*
X315488Y358744D02*
D03*
Y353232D02*
D03*
X309976Y358744D02*
D03*
Y353232D02*
D03*
X318244Y361500D02*
D03*
Y355988D02*
D03*
Y350476D02*
D03*
X312732Y361500D02*
D03*
Y350476D02*
D03*
Y355988D02*
D03*
D68*
X399000Y371700D02*
D03*
X425500Y369100D02*
D03*
X412600Y369000D02*
D03*
X372500Y368600D02*
D03*
X361800Y349400D02*
D03*
X395400Y362200D02*
D03*
X425600Y356000D02*
D03*
Y364600D02*
D03*
Y386200D02*
D03*
X361000Y419500D02*
D03*
X321098Y289000D02*
D03*
X299000Y289500D02*
D03*
X292500D02*
D03*
X296000Y285500D02*
D03*
Y293000D02*
D03*
X344500Y296500D02*
D03*
X358000D02*
D03*
X379000Y286000D02*
D03*
X374000Y382300D02*
D03*
X425600Y382000D02*
D03*
X381800Y368900D02*
D03*
X367100Y330500D02*
D03*
X369500Y274000D02*
D03*
X468500Y299000D02*
D03*
X412000Y344400D02*
D03*
X418700Y312000D02*
D03*
X297500Y428000D02*
D03*
X322500Y434000D02*
D03*
X481500Y425000D02*
D03*
Y450000D02*
D03*
X435900Y369000D02*
D03*
X341000Y411500D02*
D03*
X300000Y388500D02*
D03*
X305000Y391000D02*
D03*
D69*
X371900Y392000D02*
D03*
X401900Y405800D02*
D03*
X415000Y388600D02*
D03*
X439800Y377500D02*
D03*
X362500Y394500D02*
D03*
X361500Y387500D02*
D03*
X426000Y424500D02*
D03*
X379000Y428500D02*
D03*
X364500Y403500D02*
D03*
X310000Y300000D02*
D03*
M02*
