G04*
G04 #@! TF.GenerationSoftware,Altium Limited,Altium Designer,22.6.1 (34)*
G04*
G04 Layer_Color=8388736*
%FSLAX25Y25*%
%MOIN*%
G70*
G04*
G04 #@! TF.SameCoordinates,25FD31E9-3CFC-4910-949B-E761997E39EF*
G04*
G04*
G04 #@! TF.FilePolarity,Negative*
G04*
G01*
G75*
%ADD12C,0.01000*%
%ADD31R,0.03900X0.07400*%
%ADD32R,0.03900X0.07450*%
%ADD40R,0.07300X0.08100*%
%ADD41R,0.10400X0.06500*%
%ADD42R,0.07300X0.06500*%
%ADD43R,0.05918X0.03556*%
%ADD44R,0.16548X0.09304*%
%ADD45R,0.05761X0.04343*%
%ADD46R,0.07099X0.05524*%
%ADD47R,0.10642X0.18517*%
%ADD48R,0.03800X0.03300*%
%ADD49R,0.06706X0.05524*%
%ADD50R,0.06706X0.10249*%
%ADD51R,0.02965X0.02769*%
%ADD52R,0.04343X0.06706*%
%ADD53R,0.06706X0.04343*%
%ADD54R,0.04343X0.04343*%
%ADD55R,0.09855X0.09855*%
%ADD56R,0.06800X0.05300*%
%ADD57R,0.05300X0.06800*%
%ADD58R,0.04343X0.05761*%
%ADD59C,0.04737*%
%ADD60C,0.06800*%
%ADD61C,0.07000*%
%ADD62C,0.02800*%
%ADD63C,0.05800*%
D12*
X281000Y260500D02*
X491000D01*
X281000Y460500D02*
X491000D01*
Y260500D02*
Y460500D01*
X281000Y260500D02*
Y460500D01*
D31*
X351089Y282900D02*
D03*
D32*
X362900D02*
D03*
D40*
X433603Y409800D02*
D03*
D41*
X471792Y412851D02*
D03*
Y350549D02*
D03*
D42*
X433603D02*
D03*
D43*
X430557Y356133D02*
D03*
Y360464D02*
D03*
Y364794D02*
D03*
Y369125D02*
D03*
Y373456D02*
D03*
Y377787D02*
D03*
Y382117D02*
D03*
Y386448D02*
D03*
Y390779D02*
D03*
D44*
X452500Y337000D02*
D03*
X476279D02*
D03*
X469500Y276500D02*
D03*
X445720D02*
D03*
X476279Y314000D02*
D03*
X452500D02*
D03*
D45*
X395569Y415600D02*
D03*
X404231Y411860D02*
D03*
Y419340D02*
D03*
D46*
X321098Y298055D02*
D03*
Y279945D02*
D03*
Y289000D02*
D03*
D47*
X295902D02*
D03*
D48*
X378500Y294200D02*
D03*
Y303800D02*
D03*
D49*
X430419Y285083D02*
D03*
Y276815D02*
D03*
D50*
X341000Y411500D02*
D03*
D51*
X335941Y415437D02*
D03*
Y411500D02*
D03*
Y407563D02*
D03*
X346059Y415437D02*
D03*
Y411500D02*
D03*
Y407563D02*
D03*
D52*
X285094Y396342D02*
D03*
X290094D02*
D03*
X295094D02*
D03*
X300095D02*
D03*
X305095D02*
D03*
X310094D02*
D03*
X315094D02*
D03*
X320094D02*
D03*
X325095D02*
D03*
X330095D02*
D03*
X335094D02*
D03*
X340094D02*
D03*
X345094D02*
D03*
X350095D02*
D03*
Y327445D02*
D03*
X345094D02*
D03*
X340094D02*
D03*
X335094D02*
D03*
X330095D02*
D03*
X325095D02*
D03*
X320094D02*
D03*
X315094D02*
D03*
X310094D02*
D03*
X305095D02*
D03*
X300095D02*
D03*
X295094D02*
D03*
X290094D02*
D03*
X285094D02*
D03*
D53*
X355016Y389394D02*
D03*
Y384394D02*
D03*
Y379394D02*
D03*
Y374394D02*
D03*
Y369394D02*
D03*
Y364394D02*
D03*
Y359394D02*
D03*
Y354394D02*
D03*
Y349394D02*
D03*
Y344394D02*
D03*
Y339394D02*
D03*
Y334394D02*
D03*
D54*
X309976Y361500D02*
D03*
Y355988D02*
D03*
Y350476D02*
D03*
X321000Y361500D02*
D03*
Y355988D02*
D03*
Y350476D02*
D03*
X315488Y361500D02*
D03*
Y350476D02*
D03*
Y355988D02*
D03*
D55*
X351200Y296500D02*
D03*
X366800D02*
D03*
D56*
X397200Y387800D02*
D03*
Y379800D02*
D03*
X288000Y313500D02*
D03*
Y305500D02*
D03*
X341000Y309000D02*
D03*
Y317000D02*
D03*
X331000Y309000D02*
D03*
Y317000D02*
D03*
X295500Y417500D02*
D03*
Y409500D02*
D03*
X320500Y309000D02*
D03*
Y317000D02*
D03*
X328500Y415500D02*
D03*
Y407500D02*
D03*
X353500Y415500D02*
D03*
Y407500D02*
D03*
X331000Y281000D02*
D03*
Y289000D02*
D03*
X438000Y435500D02*
D03*
Y443500D02*
D03*
X389000Y434500D02*
D03*
Y442500D02*
D03*
X437800Y313200D02*
D03*
Y305200D02*
D03*
X437181Y328919D02*
D03*
Y336919D02*
D03*
X296000Y313500D02*
D03*
Y305500D02*
D03*
X407300Y388100D02*
D03*
Y396100D02*
D03*
X387600Y387700D02*
D03*
Y379700D02*
D03*
D57*
X455500Y290500D02*
D03*
X463500D02*
D03*
X387000Y286000D02*
D03*
X379000D02*
D03*
D58*
X393500Y294500D02*
D03*
X386020D02*
D03*
X389760Y303161D02*
D03*
D59*
X472700Y393700D02*
D03*
Y362300D02*
D03*
D60*
X410000Y444500D02*
D03*
Y434500D02*
D03*
X458000D02*
D03*
Y444500D02*
D03*
X310500Y407689D02*
D03*
Y419500D02*
D03*
D61*
X381000Y272500D02*
D03*
X391000D02*
D03*
X361000D02*
D03*
X351000D02*
D03*
X294500Y447500D02*
D03*
X304500D02*
D03*
X323000D02*
D03*
X333000D02*
D03*
D62*
X399000Y371700D02*
D03*
X425500Y369100D02*
D03*
X412600Y369000D02*
D03*
X372500Y368600D02*
D03*
X361800Y349400D02*
D03*
X395400Y362200D02*
D03*
X425600Y356000D02*
D03*
Y364600D02*
D03*
Y386200D02*
D03*
X361000Y419500D02*
D03*
X321098Y289000D02*
D03*
X299000Y289500D02*
D03*
X292500D02*
D03*
X296000Y285500D02*
D03*
Y293000D02*
D03*
X344500Y296500D02*
D03*
X358000D02*
D03*
X379000Y286000D02*
D03*
X374000Y382300D02*
D03*
X425600Y382000D02*
D03*
X381800Y368900D02*
D03*
X367100Y330500D02*
D03*
X369500Y274000D02*
D03*
X468500Y299000D02*
D03*
X412000Y344400D02*
D03*
X418700Y312000D02*
D03*
X297500Y428000D02*
D03*
X322500Y434000D02*
D03*
X481500Y425000D02*
D03*
Y450000D02*
D03*
X435900Y369000D02*
D03*
X341000Y411500D02*
D03*
X300000Y388500D02*
D03*
X305000Y391000D02*
D03*
D63*
X371900Y392000D02*
D03*
X401900Y405800D02*
D03*
X415000Y388600D02*
D03*
X439800Y377500D02*
D03*
X362500Y394500D02*
D03*
X361500Y387500D02*
D03*
X426000Y424500D02*
D03*
X379000Y428500D02*
D03*
X364500Y403500D02*
D03*
X310000Y300000D02*
D03*
M02*
