G04*
G04 #@! TF.GenerationSoftware,Altium Limited,Altium Designer,22.6.1 (34)*
G04*
G04 Layer_Physical_Order=2*
G04 Layer_Color=16711680*
%FSLAX25Y25*%
%MOIN*%
G70*
G04*
G04 #@! TF.SameCoordinates,25FD31E9-3CFC-4910-949B-E761997E39EF*
G04*
G04*
G04 #@! TF.FilePolarity,Positive*
G04*
G01*
G75*
%ADD12C,0.01000*%
%ADD61C,0.07000*%
%ADD64C,0.02000*%
%ADD65C,0.03937*%
%ADD66C,0.06000*%
%ADD67C,0.01575*%
%ADD68C,0.02000*%
%ADD69C,0.05000*%
G36*
X488500Y263000D02*
X283500D01*
Y457500D01*
X488500D01*
Y263000D01*
D02*
G37*
%LPC*%
G36*
X305092Y452000D02*
X303908D01*
X302763Y451693D01*
X301737Y451101D01*
X300899Y450263D01*
X300307Y449237D01*
X300000Y448092D01*
Y446908D01*
X300307Y445763D01*
X300414Y445577D01*
X288991Y434154D01*
X288529Y434346D01*
Y439366D01*
X292577Y443414D01*
X292763Y443307D01*
X293908Y443000D01*
X295092D01*
X296237Y443307D01*
X297263Y443899D01*
X298101Y444737D01*
X298693Y445763D01*
X299000Y446908D01*
Y448092D01*
X298693Y449237D01*
X298101Y450263D01*
X297263Y451101D01*
X296237Y451693D01*
X295092Y452000D01*
X293908D01*
X292763Y451693D01*
X291737Y451101D01*
X290899Y450263D01*
X290307Y449237D01*
X290000Y448092D01*
Y446908D01*
X290307Y445763D01*
X290414Y445577D01*
X285919Y441081D01*
X285587Y440585D01*
X285471Y440000D01*
Y390500D01*
X285587Y389915D01*
X285919Y389419D01*
X287919Y387419D01*
X288415Y387087D01*
X289000Y386971D01*
X298701D01*
X298867Y386805D01*
X299602Y386500D01*
X300398D01*
X301133Y386805D01*
X301695Y387367D01*
X302000Y388102D01*
Y388898D01*
X301935Y389055D01*
X302213Y389471D01*
X303701D01*
X303867Y389304D01*
X304602Y389000D01*
X305398D01*
X306133Y389304D01*
X306696Y389867D01*
X307000Y390602D01*
Y391398D01*
X306696Y392133D01*
X306133Y392695D01*
X305398Y393000D01*
X304602D01*
X303867Y392695D01*
X303701Y392529D01*
X295133D01*
X291029Y396634D01*
Y431867D01*
X302577Y443414D01*
X302763Y443307D01*
X303908Y443000D01*
X305092D01*
X306237Y443307D01*
X307263Y443899D01*
X308101Y444737D01*
X308693Y445763D01*
X309000Y446908D01*
Y448092D01*
X308693Y449237D01*
X308101Y450263D01*
X307263Y451101D01*
X306237Y451693D01*
X305092Y452000D01*
D02*
G37*
G36*
X458527Y438500D02*
X457473D01*
X456456Y438227D01*
X455544Y437701D01*
X454799Y436956D01*
X454273Y436044D01*
X454000Y435027D01*
Y433973D01*
X454273Y432956D01*
X454799Y432044D01*
X455544Y431299D01*
X456456Y430773D01*
X457473Y430500D01*
X458527D01*
X459544Y430773D01*
X460456Y431299D01*
X461201Y432044D01*
X461727Y432956D01*
X462000Y433973D01*
Y435027D01*
X461727Y436044D01*
X461201Y436956D01*
X460456Y437701D01*
X459544Y438227D01*
X458527Y438500D01*
D02*
G37*
G36*
X410527D02*
X409473D01*
X408456Y438227D01*
X407544Y437701D01*
X406799Y436956D01*
X406273Y436044D01*
X406000Y435027D01*
Y433973D01*
X406273Y432956D01*
X406799Y432044D01*
X407544Y431299D01*
X408456Y430773D01*
X409473Y430500D01*
X410527D01*
X411544Y430773D01*
X412456Y431299D01*
X413201Y432044D01*
X413727Y432956D01*
X414000Y433973D01*
Y435027D01*
X413727Y436044D01*
X413201Y436956D01*
X412456Y437701D01*
X411544Y438227D01*
X410527Y438500D01*
D02*
G37*
G36*
X333592Y452000D02*
X332408D01*
X331263Y451693D01*
X330237Y451101D01*
X329399Y450263D01*
X328807Y449237D01*
X328500Y448092D01*
Y446908D01*
X328807Y445763D01*
X329399Y444737D01*
X330237Y443899D01*
X331263Y443307D01*
X332408Y443000D01*
X333592D01*
X334737Y443307D01*
X335763Y443899D01*
X336601Y444737D01*
X337193Y445763D01*
X337500Y446908D01*
Y446971D01*
X352867D01*
X362971Y436867D01*
Y421065D01*
X362923Y421032D01*
X362471Y420899D01*
X362442Y420942D01*
X362275Y421054D01*
X362133Y421196D01*
X361947Y421272D01*
X361780Y421384D01*
X361583Y421423D01*
X361398Y421500D01*
X361197D01*
X361000Y421539D01*
X313942D01*
X313701Y421956D01*
X312956Y422701D01*
X312044Y423227D01*
X311027Y423500D01*
X309973D01*
X308956Y423227D01*
X308044Y422701D01*
X307299Y421956D01*
X306773Y421044D01*
X306500Y420027D01*
Y418973D01*
X306773Y417956D01*
X307299Y417044D01*
X308044Y416299D01*
X308956Y415773D01*
X309973Y415500D01*
X311027D01*
X312044Y415773D01*
X312956Y416299D01*
X313574Y416917D01*
X313961Y416530D01*
Y410592D01*
X313461Y410385D01*
X312956Y410890D01*
X312044Y411416D01*
X311027Y411689D01*
X309973D01*
X308956Y411416D01*
X308044Y410890D01*
X307299Y410145D01*
X306773Y409233D01*
X306500Y408216D01*
Y407162D01*
X306773Y406145D01*
X307299Y405233D01*
X308044Y404488D01*
X308956Y403962D01*
X309973Y403689D01*
X311027D01*
X312044Y403962D01*
X312956Y404488D01*
X313461Y404993D01*
X313961Y404786D01*
Y375845D01*
X303558Y365442D01*
X303116Y364780D01*
X302961Y364000D01*
Y305000D01*
X303116Y304220D01*
X303558Y303558D01*
X306533Y300583D01*
X306500Y300461D01*
Y299539D01*
X306738Y298649D01*
X307199Y297851D01*
X307851Y297199D01*
X308649Y296739D01*
X309539Y296500D01*
X310461D01*
X311351Y296739D01*
X312149Y297199D01*
X312801Y297851D01*
X313262Y298649D01*
X313500Y299539D01*
Y300461D01*
X313262Y301351D01*
X312801Y302149D01*
X312149Y302801D01*
X311351Y303261D01*
X310461Y303500D01*
X309539D01*
X309417Y303467D01*
X307039Y305845D01*
Y363155D01*
X317442Y373558D01*
X317884Y374220D01*
X318039Y375000D01*
Y417375D01*
X318110Y417461D01*
X337187D01*
X337339Y416961D01*
X337279Y416921D01*
X337058Y416590D01*
X336980Y416200D01*
Y406800D01*
X337058Y406410D01*
X337279Y406079D01*
X337610Y405858D01*
X338000Y405780D01*
X344000D01*
X344390Y405858D01*
X344721Y406079D01*
X344942Y406410D01*
X345020Y406800D01*
Y416200D01*
X344942Y416590D01*
X344721Y416921D01*
X344661Y416961D01*
X344813Y417461D01*
X361000D01*
X361197Y417500D01*
X361398D01*
X361583Y417577D01*
X361780Y417616D01*
X361947Y417728D01*
X362133Y417804D01*
X362275Y417946D01*
X362442Y418058D01*
X362471Y418101D01*
X362923Y417968D01*
X362971Y417935D01*
Y406659D01*
X362351Y406301D01*
X361699Y405649D01*
X361239Y404851D01*
X361000Y403961D01*
Y403039D01*
X361239Y402149D01*
X361699Y401351D01*
X362351Y400699D01*
X363149Y400239D01*
X364039Y400000D01*
X364961D01*
X365192Y400062D01*
X365451Y399614D01*
X363652Y397815D01*
X362961Y398000D01*
X362039D01*
X361149Y397762D01*
X360351Y397301D01*
X359699Y396649D01*
X359239Y395851D01*
X359000Y394961D01*
Y394039D01*
X359239Y393149D01*
X359699Y392351D01*
X360351Y391699D01*
X360784Y391449D01*
X360713Y390913D01*
X360149Y390761D01*
X359351Y390301D01*
X358699Y389649D01*
X358239Y388851D01*
X358000Y387961D01*
Y387039D01*
X358239Y386149D01*
X358699Y385351D01*
X359351Y384699D01*
X360149Y384239D01*
X361039Y384000D01*
X361961D01*
X362851Y384239D01*
X363649Y384699D01*
X364301Y385351D01*
X364658Y385971D01*
X390600D01*
X391185Y386087D01*
X391681Y386419D01*
X426263Y421000D01*
X426461D01*
X427351Y421239D01*
X428149Y421699D01*
X428801Y422351D01*
X429261Y423149D01*
X429500Y424039D01*
Y424961D01*
X429261Y425851D01*
X428801Y426649D01*
X428149Y427301D01*
X427351Y427762D01*
X426461Y428000D01*
X425539D01*
X424649Y427762D01*
X423851Y427301D01*
X423199Y426649D01*
X422739Y425851D01*
X422500Y424961D01*
Y424039D01*
X422739Y423149D01*
X423199Y422351D01*
X423244Y422307D01*
X405786Y404849D01*
X405338Y405108D01*
X405400Y405339D01*
Y406261D01*
X405162Y407151D01*
X404701Y407949D01*
X404049Y408601D01*
X403251Y409061D01*
X402361Y409300D01*
X401439D01*
X400549Y409061D01*
X399751Y408601D01*
X399099Y407949D01*
X398639Y407151D01*
X398400Y406261D01*
Y405339D01*
X398585Y404648D01*
X387467Y393529D01*
X375059D01*
X374701Y394149D01*
X374049Y394801D01*
X373251Y395262D01*
X372361Y395500D01*
X371439D01*
X370549Y395262D01*
X369751Y394801D01*
X369099Y394149D01*
X368638Y393351D01*
X368400Y392461D01*
Y391539D01*
X368638Y390649D01*
X369099Y389851D01*
X369421Y389529D01*
X369214Y389029D01*
X364658D01*
X364301Y389649D01*
X363649Y390301D01*
X363216Y390551D01*
X363287Y391087D01*
X363851Y391238D01*
X364649Y391699D01*
X365301Y392351D01*
X365761Y393149D01*
X366000Y394039D01*
Y394961D01*
X365815Y395652D01*
X380081Y409919D01*
X380413Y410415D01*
X380529Y411000D01*
Y425342D01*
X381149Y425699D01*
X381801Y426351D01*
X382261Y427149D01*
X382500Y428039D01*
Y428961D01*
X382261Y429851D01*
X381801Y430649D01*
X381149Y431301D01*
X380351Y431762D01*
X379461Y432000D01*
X378539D01*
X377649Y431762D01*
X376851Y431301D01*
X376199Y430649D01*
X375739Y429851D01*
X375500Y428961D01*
Y428039D01*
X375739Y427149D01*
X376199Y426351D01*
X376851Y425699D01*
X377471Y425342D01*
Y411633D01*
X368386Y402549D01*
X367938Y402808D01*
X368000Y403039D01*
Y403961D01*
X367761Y404851D01*
X367301Y405649D01*
X366649Y406301D01*
X366029Y406659D01*
Y437500D01*
X365913Y438085D01*
X365581Y438581D01*
X354581Y449581D01*
X354085Y449913D01*
X353500Y450029D01*
X336736D01*
X336601Y450263D01*
X335763Y451101D01*
X334737Y451693D01*
X333592Y452000D01*
D02*
G37*
G36*
X473091Y396669D02*
X472309D01*
X471554Y396466D01*
X470877Y396075D01*
X470325Y395523D01*
X469934Y394846D01*
X469732Y394091D01*
Y393309D01*
X469934Y392554D01*
X470325Y391877D01*
X470877Y391325D01*
X471554Y390934D01*
X472309Y390732D01*
X473091D01*
X473846Y390934D01*
X474523Y391325D01*
X475075Y391877D01*
X475466Y392554D01*
X475668Y393309D01*
Y394091D01*
X475466Y394846D01*
X475075Y395523D01*
X474523Y396075D01*
X473846Y396466D01*
X473091Y396669D01*
D02*
G37*
G36*
X415461Y392100D02*
X414539D01*
X413649Y391862D01*
X412851Y391401D01*
X412199Y390749D01*
X411738Y389951D01*
X411500Y389061D01*
Y388139D01*
X411738Y387249D01*
X412199Y386451D01*
X412851Y385799D01*
X413649Y385338D01*
X414539Y385100D01*
X415461D01*
X416351Y385338D01*
X417149Y385799D01*
X417801Y386451D01*
X418211Y387161D01*
X419909D01*
X420100Y386699D01*
X412231Y378829D01*
X375500D01*
X374915Y378713D01*
X374419Y378381D01*
X360719Y364681D01*
X360387Y364185D01*
X360271Y363600D01*
X360271Y350699D01*
X360104Y350533D01*
X359800Y349798D01*
Y349002D01*
X360104Y348267D01*
X360667Y347705D01*
X361402Y347400D01*
X362198D01*
X362933Y347705D01*
X363495Y348267D01*
X363800Y349002D01*
Y349798D01*
X363495Y350533D01*
X363329Y350699D01*
X363329Y362966D01*
X376133Y375771D01*
X412864D01*
X413450Y375887D01*
X413946Y376219D01*
X422498Y384771D01*
X424201D01*
X424467Y384505D01*
X424790Y384371D01*
Y383829D01*
X424467Y383696D01*
X423905Y383133D01*
X423600Y382398D01*
Y382163D01*
X412437Y371000D01*
X412202D01*
X411467Y370695D01*
X410905Y370133D01*
X410600Y369398D01*
Y368602D01*
X410905Y367867D01*
X411467Y367304D01*
X412202Y367000D01*
X412998D01*
X413733Y367304D01*
X414295Y367867D01*
X414600Y368602D01*
Y368837D01*
X425763Y380000D01*
X425998D01*
X426733Y380305D01*
X427295Y380867D01*
X427600Y381602D01*
Y382398D01*
X427295Y383133D01*
X426733Y383696D01*
X426410Y383829D01*
Y384371D01*
X426733Y384505D01*
X427295Y385067D01*
X427600Y385802D01*
Y386598D01*
X427539Y386745D01*
X427817Y387161D01*
X433855D01*
X437761Y383255D01*
Y380364D01*
X437651Y380301D01*
X436999Y379649D01*
X436539Y378851D01*
X436300Y377961D01*
Y377039D01*
X436539Y376149D01*
X436999Y375351D01*
X437651Y374699D01*
X438449Y374238D01*
X439339Y374000D01*
X440261D01*
X441151Y374238D01*
X441949Y374699D01*
X442601Y375351D01*
X443061Y376149D01*
X443300Y377039D01*
Y377961D01*
X443061Y378851D01*
X442601Y379649D01*
X441949Y380301D01*
X441839Y380364D01*
Y384100D01*
X441839Y384100D01*
X441684Y384880D01*
X441242Y385542D01*
X441242Y385542D01*
X436142Y390642D01*
X435480Y391084D01*
X434700Y391239D01*
X417672D01*
X417541Y391213D01*
X417337D01*
X417149Y391401D01*
X416351Y391862D01*
X415461Y392100D01*
D02*
G37*
G36*
X425998Y366600D02*
X425202D01*
X424467Y366296D01*
X423905Y365733D01*
X423600Y364998D01*
Y364763D01*
X420266Y361429D01*
X398334D01*
X397400Y362363D01*
Y362598D01*
X397095Y363333D01*
X396533Y363896D01*
X395798Y364200D01*
X395002D01*
X394267Y363896D01*
X393705Y363333D01*
X393400Y362598D01*
Y361802D01*
X393705Y361067D01*
X394267Y360505D01*
X395002Y360200D01*
X395237D01*
X396619Y358819D01*
X397115Y358487D01*
X397700Y358371D01*
X420900D01*
X421485Y358487D01*
X421981Y358819D01*
X425763Y362600D01*
X425998D01*
X426733Y362905D01*
X427295Y363467D01*
X427600Y364202D01*
Y364998D01*
X427295Y365733D01*
X426733Y366296D01*
X425998Y366600D01*
D02*
G37*
G36*
X473091Y365268D02*
X472309D01*
X471554Y365066D01*
X470877Y364675D01*
X470325Y364123D01*
X469934Y363446D01*
X469732Y362691D01*
Y361909D01*
X469934Y361154D01*
X470325Y360477D01*
X470877Y359925D01*
X471554Y359534D01*
X472309Y359331D01*
X473091D01*
X473846Y359534D01*
X474523Y359925D01*
X475075Y360477D01*
X475466Y361154D01*
X475668Y361909D01*
Y362691D01*
X475466Y363446D01*
X475075Y364123D01*
X474523Y364675D01*
X473846Y365066D01*
X473091Y365268D01*
D02*
G37*
G36*
X455100Y396775D02*
X445800D01*
X445312Y396677D01*
X444899Y396401D01*
X444623Y395988D01*
X444525Y395500D01*
Y356300D01*
X444623Y355812D01*
X444899Y355399D01*
X445312Y355122D01*
X445800Y355026D01*
X455100D01*
X455588Y355122D01*
X456001Y355399D01*
X456278Y355812D01*
X456375Y356300D01*
Y395500D01*
X456278Y395988D01*
X456001Y396401D01*
X455588Y396677D01*
X455100Y396775D01*
D02*
G37*
G36*
X372898Y370600D02*
X372102D01*
X371367Y370296D01*
X370805Y369733D01*
X370500Y368998D01*
Y368202D01*
X370805Y367467D01*
X371367Y366904D01*
X372102Y366600D01*
X372337D01*
X384019Y354919D01*
X384515Y354587D01*
X385100Y354471D01*
X424301D01*
X424467Y354305D01*
X425202Y354000D01*
X425998D01*
X426733Y354305D01*
X427295Y354867D01*
X427600Y355602D01*
Y356398D01*
X427295Y357133D01*
X426733Y357696D01*
X425998Y358000D01*
X425202D01*
X424467Y357696D01*
X424301Y357529D01*
X385734D01*
X374500Y368763D01*
Y368998D01*
X374196Y369733D01*
X373633Y370296D01*
X372898Y370600D01*
D02*
G37*
G36*
X391592Y277000D02*
X390408D01*
X389263Y276693D01*
X388237Y276101D01*
X387399Y275263D01*
X386807Y274237D01*
X386500Y273092D01*
Y271908D01*
X386807Y270763D01*
X387399Y269737D01*
X388237Y268899D01*
X389263Y268307D01*
X390408Y268000D01*
X391592D01*
X392737Y268307D01*
X393763Y268899D01*
X394601Y269737D01*
X395193Y270763D01*
X395500Y271908D01*
Y273092D01*
X395193Y274237D01*
X394601Y275263D01*
X393763Y276101D01*
X392737Y276693D01*
X391592Y277000D01*
D02*
G37*
G36*
X361592D02*
X360408D01*
X359263Y276693D01*
X358237Y276101D01*
X357399Y275263D01*
X356807Y274237D01*
X356500Y273092D01*
Y271908D01*
X356807Y270763D01*
X357399Y269737D01*
X358237Y268899D01*
X359263Y268307D01*
X360408Y268000D01*
X361592D01*
X362737Y268307D01*
X363763Y268899D01*
X364601Y269737D01*
X365193Y270763D01*
X365500Y271908D01*
Y273092D01*
X365193Y274237D01*
X364601Y275263D01*
X363763Y276101D01*
X362737Y276693D01*
X361592Y277000D01*
D02*
G37*
%LPD*%
G36*
X401439Y402300D02*
X402361D01*
X402592Y402362D01*
X402851Y401914D01*
X389967Y389029D01*
X374586D01*
X374379Y389529D01*
X374701Y389851D01*
X375059Y390471D01*
X388100D01*
X388685Y390587D01*
X389181Y390919D01*
X400748Y402485D01*
X401439Y402300D01*
D02*
G37*
G36*
X453826Y357575D02*
X447075D01*
Y394226D01*
X453826D01*
Y357575D01*
D02*
G37*
D12*
X371900Y392000D02*
X388100D01*
X401900Y405800D01*
X425235Y423735D02*
X426000Y424500D01*
X361500Y387500D02*
X390600D01*
X425235Y422135D02*
Y423735D01*
X390600Y387500D02*
X425235Y422135D01*
X412600Y369000D02*
X425600Y382000D01*
X375500Y377300D02*
X412864D01*
X361800Y363600D02*
X375500Y377300D01*
X412864D02*
X421865Y386300D01*
X361800Y363600D02*
X361800Y349400D01*
X385100Y356000D02*
X425600D01*
X372500Y368600D02*
X385100Y356000D01*
X395400Y362200D02*
X397700Y359900D01*
X420900D01*
X425600Y364600D01*
X421865Y386300D02*
X425500D01*
X425600Y386200D01*
X362500Y394500D02*
X379000Y411000D01*
Y428500D01*
X333000Y447500D02*
X334000Y448500D01*
X353500D01*
X364500Y437500D01*
Y403500D02*
Y437500D01*
X287000Y390500D02*
X289000Y388500D01*
X287000Y440000D02*
X294500Y447500D01*
X287000Y390500D02*
Y440000D01*
X289500Y432500D02*
X304500Y447500D01*
X289500Y396000D02*
Y432500D01*
Y396000D02*
X294500Y391000D01*
X289000Y388500D02*
X300000D01*
X294500Y391000D02*
X305000D01*
X281000Y260500D02*
X491000D01*
X281000Y460500D02*
X491000D01*
Y260500D02*
Y460500D01*
X281000Y260500D02*
Y460500D01*
D61*
X381000Y272500D02*
D03*
X391000D02*
D03*
X361000D02*
D03*
X351000D02*
D03*
X294500Y447500D02*
D03*
X304500D02*
D03*
X323000D02*
D03*
X333000D02*
D03*
D64*
X417672Y389200D02*
X434700D01*
X415000Y388600D02*
X415574Y389174D01*
X417646D01*
X417672Y389200D01*
X434700D02*
X439800Y384100D01*
Y377500D02*
Y384100D01*
X313875Y419500D02*
X361000D01*
X313875D02*
X316000Y417375D01*
X310500Y419500D02*
X313875D01*
X316000Y375000D02*
Y417375D01*
X305000Y364000D02*
X316000Y375000D01*
X305000Y305000D02*
Y364000D01*
Y305000D02*
X310000Y300000D01*
D65*
X472700Y393700D02*
D03*
Y362300D02*
D03*
D66*
X410000Y444500D02*
D03*
Y434500D02*
D03*
X458000D02*
D03*
Y444500D02*
D03*
X310500Y407689D02*
D03*
Y419500D02*
D03*
D67*
X321000Y358744D02*
D03*
Y353232D02*
D03*
X315488Y358744D02*
D03*
Y353232D02*
D03*
X309976Y358744D02*
D03*
Y353232D02*
D03*
X318244Y361500D02*
D03*
Y355988D02*
D03*
Y350476D02*
D03*
X312732Y361500D02*
D03*
Y350476D02*
D03*
Y355988D02*
D03*
D68*
X399000Y371700D02*
D03*
X425500Y369100D02*
D03*
X412600Y369000D02*
D03*
X372500Y368600D02*
D03*
X361800Y349400D02*
D03*
X395400Y362200D02*
D03*
X425600Y356000D02*
D03*
Y364600D02*
D03*
Y386200D02*
D03*
X361000Y419500D02*
D03*
X321098Y289000D02*
D03*
X299000Y289500D02*
D03*
X292500D02*
D03*
X296000Y285500D02*
D03*
Y293000D02*
D03*
X344500Y296500D02*
D03*
X358000D02*
D03*
X379000Y286000D02*
D03*
X374000Y382300D02*
D03*
X425600Y382000D02*
D03*
X381800Y368900D02*
D03*
X367100Y330500D02*
D03*
X369500Y274000D02*
D03*
X468500Y299000D02*
D03*
X412000Y344400D02*
D03*
X418700Y312000D02*
D03*
X297500Y428000D02*
D03*
X322500Y434000D02*
D03*
X481500Y425000D02*
D03*
Y450000D02*
D03*
X435900Y369000D02*
D03*
X341000Y411500D02*
D03*
X300000Y388500D02*
D03*
X305000Y391000D02*
D03*
D69*
X371900Y392000D02*
D03*
X401900Y405800D02*
D03*
X415000Y388600D02*
D03*
X439800Y377500D02*
D03*
X362500Y394500D02*
D03*
X361500Y387500D02*
D03*
X426000Y424500D02*
D03*
X379000Y428500D02*
D03*
X364500Y403500D02*
D03*
X310000Y300000D02*
D03*
M02*
